<mxfile host="app.diagrams.net" modified="2021-03-22T12:22:48.510Z" agent="5.0 (Windows NT 10.0; Win64; x64) AppleWebKit/537.36 (KHTML, like Gecko) Chrome/89.0.4389.90 Safari/537.36" etag="OkBAqVqWU5oPN6sxZ64c" version="14.4.9" type="github">
  <diagram id="mUvAk4owc0tqbDuLF9cG" name="Page-1">
    <mxGraphModel dx="1038" dy="1717" grid="1" gridSize="10" guides="1" tooltips="1" connect="1" arrows="1" fold="1" page="1" pageScale="1" pageWidth="827" pageHeight="1169" math="0" shadow="0">
      <root>
        <mxCell id="0" />
        <mxCell id="1" parent="0" />
        <mxCell id="gPckJBPebu3lDU5of1CX-1" value="Story" style="swimlane;html=1;childLayout=stackLayout;startSize=20;rounded=0;shadow=0;comic=0;labelBackgroundColor=none;strokeWidth=1;fontFamily=Verdana;fontSize=12;align=center;" vertex="1" parent="1">
          <mxGeometry x="60" y="-1080" width="1955" height="3710" as="geometry" />
        </mxCell>
        <mxCell id="gPckJBPebu3lDU5of1CX-2" value="&lt;span style=&quot;font-family: &amp;#34;verdana&amp;#34; ; font-weight: 400&quot;&gt;EP04-01&lt;/span&gt;" style="swimlane;html=1;startSize=20;" vertex="1" parent="gPckJBPebu3lDU5of1CX-1">
          <mxGeometry y="20" width="320" height="3690" as="geometry" />
        </mxCell>
        <mxCell id="gPckJBPebu3lDU5of1CX-86" style="edgeStyle=orthogonalEdgeStyle;rounded=0;orthogonalLoop=1;jettySize=auto;html=1;" edge="1" parent="gPckJBPebu3lDU5of1CX-2" source="gPckJBPebu3lDU5of1CX-3" target="gPckJBPebu3lDU5of1CX-78">
          <mxGeometry relative="1" as="geometry" />
        </mxCell>
        <mxCell id="gPckJBPebu3lDU5of1CX-3" value="EP04-01_0" style="rounded=1;whiteSpace=wrap;html=1;shadow=0;comic=0;labelBackgroundColor=none;strokeWidth=1;fontFamily=Verdana;fontSize=12;align=center;arcSize=50;" vertex="1" parent="gPckJBPebu3lDU5of1CX-2">
          <mxGeometry x="75" y="220" width="100" height="30" as="geometry" />
        </mxCell>
        <mxCell id="gPckJBPebu3lDU5of1CX-4" style="edgeStyle=none;rounded=0;html=1;dashed=1;labelBackgroundColor=none;startArrow=none;startFill=0;startSize=5;endArrow=oval;endFill=0;endSize=5;jettySize=auto;orthogonalLoop=1;strokeWidth=1;fontFamily=Verdana;fontSize=12;entryX=0.5;entryY=1;entryDx=0;entryDy=0;exitX=0.5;exitY=0;exitDx=0;exitDy=0;exitPerimeter=0;" edge="1" parent="gPckJBPebu3lDU5of1CX-2" source="gPckJBPebu3lDU5of1CX-6" target="gPckJBPebu3lDU5of1CX-3">
          <mxGeometry relative="1" as="geometry">
            <mxPoint x="150" y="377.8780487804878" as="sourcePoint" />
            <mxPoint x="112.9545454545455" y="358" as="targetPoint" />
          </mxGeometry>
        </mxCell>
        <mxCell id="gPckJBPebu3lDU5of1CX-6" value="EP04-01" style="shape=note;whiteSpace=wrap;html=1;rounded=0;shadow=0;comic=0;labelBackgroundColor=none;strokeWidth=1;fontFamily=Verdana;fontSize=12;align=center;size=20;fillColor=#dae8fc;strokeColor=#6c8ebf;" vertex="1" parent="gPckJBPebu3lDU5of1CX-2">
          <mxGeometry x="20" y="270" width="75" height="44" as="geometry" />
        </mxCell>
        <mxCell id="gPckJBPebu3lDU5of1CX-7" value="" style="shape=umlActor;verticalLabelPosition=bottom;verticalAlign=top;html=1;outlineConnect=0;" vertex="1" parent="gPckJBPebu3lDU5of1CX-2">
          <mxGeometry x="108.25" y="30" width="30" height="60" as="geometry" />
        </mxCell>
        <mxCell id="gPckJBPebu3lDU5of1CX-8" style="edgeStyle=none;rounded=0;orthogonalLoop=1;jettySize=auto;html=1;dashed=1;startArrow=oval;startFill=0;" edge="1" parent="gPckJBPebu3lDU5of1CX-2" source="gPckJBPebu3lDU5of1CX-9" target="gPckJBPebu3lDU5of1CX-3">
          <mxGeometry relative="1" as="geometry" />
        </mxCell>
        <mxCell id="gPckJBPebu3lDU5of1CX-9" value="医生房间" style="shape=card;whiteSpace=wrap;html=1;size=20;fillColor=#d5e8d4;strokeColor=#82b366;" vertex="1" parent="gPckJBPebu3lDU5of1CX-2">
          <mxGeometry x="150" y="280" width="80" height="40" as="geometry" />
        </mxCell>
        <mxCell id="gPckJBPebu3lDU5of1CX-75" style="edgeStyle=orthogonalEdgeStyle;rounded=0;orthogonalLoop=1;jettySize=auto;html=1;entryX=0.5;entryY=0;entryDx=0;entryDy=0;" edge="1" parent="gPckJBPebu3lDU5of1CX-2" source="gPckJBPebu3lDU5of1CX-73" target="gPckJBPebu3lDU5of1CX-3">
          <mxGeometry relative="1" as="geometry" />
        </mxCell>
        <mxCell id="gPckJBPebu3lDU5of1CX-73" value="进入&lt;br&gt;医生房间CG场景" style="rounded=0;whiteSpace=wrap;html=1;shadow=0;comic=0;labelBackgroundColor=none;strokeWidth=1;fontFamily=Verdana;fontSize=12;align=center;arcSize=50;fillColor=#ffe6cc;strokeColor=#d79b00;" vertex="1" parent="gPckJBPebu3lDU5of1CX-2">
          <mxGeometry x="76.75" y="130" width="96.5" height="50" as="geometry" />
        </mxCell>
        <mxCell id="gPckJBPebu3lDU5of1CX-76" style="edgeStyle=none;rounded=0;orthogonalLoop=1;jettySize=auto;html=1;entryX=0.75;entryY=0;entryDx=0;entryDy=0;startArrow=oval;startFill=0;" edge="1" parent="gPckJBPebu3lDU5of1CX-2" source="gPckJBPebu3lDU5of1CX-77">
          <mxGeometry relative="1" as="geometry">
            <mxPoint x="166.8800000000001" y="220" as="targetPoint" />
          </mxGeometry>
        </mxCell>
        <mxCell id="gPckJBPebu3lDU5of1CX-77" value="&lt;span style=&quot;font-size: 9.5pt ; color: #262626 ; letter-spacing: 0.55pt&quot;&gt;调查教程&lt;/span&gt;" style="shape=parallelogram;perimeter=parallelogramPerimeter;whiteSpace=wrap;html=1;fixedSize=1;" vertex="1" parent="gPckJBPebu3lDU5of1CX-2">
          <mxGeometry x="190" y="170" width="120" height="40" as="geometry" />
        </mxCell>
        <mxCell id="gPckJBPebu3lDU5of1CX-94" style="edgeStyle=orthogonalEdgeStyle;rounded=0;orthogonalLoop=1;jettySize=auto;html=1;entryX=0.5;entryY=0;entryDx=0;entryDy=0;" edge="1" parent="gPckJBPebu3lDU5of1CX-2" source="gPckJBPebu3lDU5of1CX-78" target="gPckJBPebu3lDU5of1CX-87">
          <mxGeometry relative="1" as="geometry" />
        </mxCell>
        <mxCell id="gPckJBPebu3lDU5of1CX-78" value="EP04-01_1" style="rounded=1;whiteSpace=wrap;html=1;shadow=0;comic=0;labelBackgroundColor=none;strokeWidth=1;fontFamily=Verdana;fontSize=12;align=center;arcSize=50;" vertex="1" parent="gPckJBPebu3lDU5of1CX-2">
          <mxGeometry x="75" y="400" width="100" height="30" as="geometry" />
        </mxCell>
        <mxCell id="gPckJBPebu3lDU5of1CX-79" style="edgeStyle=none;rounded=0;html=1;dashed=1;labelBackgroundColor=none;startArrow=none;startFill=0;startSize=5;endArrow=oval;endFill=0;endSize=5;jettySize=auto;orthogonalLoop=1;strokeWidth=1;fontFamily=Verdana;fontSize=12;entryX=0.074;entryY=1;entryDx=0;entryDy=0;exitX=0.5;exitY=0;exitDx=0;exitDy=0;exitPerimeter=0;entryPerimeter=0;" edge="1" parent="gPckJBPebu3lDU5of1CX-2" source="gPckJBPebu3lDU5of1CX-80" target="gPckJBPebu3lDU5of1CX-78">
          <mxGeometry relative="1" as="geometry">
            <mxPoint x="115" y="1617.878048780488" as="sourcePoint" />
            <mxPoint x="77.9545454545455" y="1598" as="targetPoint" />
          </mxGeometry>
        </mxCell>
        <mxCell id="gPckJBPebu3lDU5of1CX-80" value="EP04-01" style="shape=note;whiteSpace=wrap;html=1;rounded=0;shadow=0;comic=0;labelBackgroundColor=none;strokeWidth=1;fontFamily=Verdana;fontSize=12;align=center;size=20;fillColor=#dae8fc;strokeColor=#6c8ebf;" vertex="1" parent="gPckJBPebu3lDU5of1CX-2">
          <mxGeometry x="15" y="450" width="75" height="44" as="geometry" />
        </mxCell>
        <mxCell id="gPckJBPebu3lDU5of1CX-81" style="edgeStyle=none;rounded=0;orthogonalLoop=1;jettySize=auto;html=1;dashed=1;startArrow=oval;startFill=0;" edge="1" parent="gPckJBPebu3lDU5of1CX-2" source="gPckJBPebu3lDU5of1CX-82" target="gPckJBPebu3lDU5of1CX-78">
          <mxGeometry relative="1" as="geometry" />
        </mxCell>
        <mxCell id="gPckJBPebu3lDU5of1CX-82" value="医生房间" style="shape=card;whiteSpace=wrap;html=1;size=20;fillColor=#d5e8d4;strokeColor=#82b366;" vertex="1" parent="gPckJBPebu3lDU5of1CX-2">
          <mxGeometry x="205" y="456" width="80" height="40" as="geometry" />
        </mxCell>
        <mxCell id="gPckJBPebu3lDU5of1CX-84" style="edgeStyle=none;rounded=0;orthogonalLoop=1;jettySize=auto;html=1;entryX=0.75;entryY=0;entryDx=0;entryDy=0;startArrow=oval;startFill=0;" edge="1" parent="gPckJBPebu3lDU5of1CX-2" source="gPckJBPebu3lDU5of1CX-85">
          <mxGeometry relative="1" as="geometry">
            <mxPoint x="161.8800000000001" y="400" as="targetPoint" />
          </mxGeometry>
        </mxCell>
        <mxCell id="gPckJBPebu3lDU5of1CX-85" value="&lt;span style=&quot;color: rgb(38 , 38 , 38) ; font-size: 12.6667px ; letter-spacing: 0.733333px&quot;&gt;助手系统导入&lt;/span&gt;" style="shape=parallelogram;perimeter=parallelogramPerimeter;whiteSpace=wrap;html=1;fixedSize=1;" vertex="1" parent="gPckJBPebu3lDU5of1CX-2">
          <mxGeometry x="185" y="350" width="120" height="40" as="geometry" />
        </mxCell>
        <mxCell id="gPckJBPebu3lDU5of1CX-87" value="EP04-01_2" style="rounded=1;whiteSpace=wrap;html=1;shadow=0;comic=0;labelBackgroundColor=none;strokeWidth=1;fontFamily=Verdana;fontSize=12;align=center;arcSize=50;" vertex="1" parent="gPckJBPebu3lDU5of1CX-2">
          <mxGeometry x="75" y="590" width="100" height="30" as="geometry" />
        </mxCell>
        <mxCell id="gPckJBPebu3lDU5of1CX-88" style="edgeStyle=none;rounded=0;html=1;dashed=1;labelBackgroundColor=none;startArrow=none;startFill=0;startSize=5;endArrow=oval;endFill=0;endSize=5;jettySize=auto;orthogonalLoop=1;strokeWidth=1;fontFamily=Verdana;fontSize=12;entryX=0;entryY=1;entryDx=0;entryDy=0;exitX=0.5;exitY=0;exitDx=0;exitDy=0;exitPerimeter=0;" edge="1" parent="gPckJBPebu3lDU5of1CX-2" source="gPckJBPebu3lDU5of1CX-89" target="gPckJBPebu3lDU5of1CX-87">
          <mxGeometry relative="1" as="geometry">
            <mxPoint x="80" y="2867.878048780488" as="sourcePoint" />
            <mxPoint x="42.954545454545496" y="2848" as="targetPoint" />
          </mxGeometry>
        </mxCell>
        <mxCell id="gPckJBPebu3lDU5of1CX-89" value="EP04-01" style="shape=note;whiteSpace=wrap;html=1;rounded=0;shadow=0;comic=0;labelBackgroundColor=none;strokeWidth=1;fontFamily=Verdana;fontSize=12;align=center;size=20;fillColor=#dae8fc;strokeColor=#6c8ebf;" vertex="1" parent="gPckJBPebu3lDU5of1CX-2">
          <mxGeometry x="10" y="640" width="75" height="44" as="geometry" />
        </mxCell>
        <mxCell id="gPckJBPebu3lDU5of1CX-90" style="edgeStyle=none;rounded=0;orthogonalLoop=1;jettySize=auto;html=1;dashed=1;startArrow=oval;startFill=0;" edge="1" parent="gPckJBPebu3lDU5of1CX-2" source="gPckJBPebu3lDU5of1CX-91" target="gPckJBPebu3lDU5of1CX-87">
          <mxGeometry relative="1" as="geometry" />
        </mxCell>
        <mxCell id="gPckJBPebu3lDU5of1CX-91" value="医生房间" style="shape=card;whiteSpace=wrap;html=1;size=20;fillColor=#d5e8d4;strokeColor=#82b366;" vertex="1" parent="gPckJBPebu3lDU5of1CX-2">
          <mxGeometry x="200" y="646" width="80" height="40" as="geometry" />
        </mxCell>
        <mxCell id="gPckJBPebu3lDU5of1CX-92" style="edgeStyle=none;rounded=0;orthogonalLoop=1;jettySize=auto;html=1;entryX=0.75;entryY=0;entryDx=0;entryDy=0;startArrow=oval;startFill=0;" edge="1" parent="gPckJBPebu3lDU5of1CX-2" source="gPckJBPebu3lDU5of1CX-93">
          <mxGeometry relative="1" as="geometry">
            <mxPoint x="156.8800000000001" y="590" as="targetPoint" />
          </mxGeometry>
        </mxCell>
        <mxCell id="gPckJBPebu3lDU5of1CX-93" value="&lt;span style=&quot;color: rgb(38 , 38 , 38) ; font-size: 12.6667px ; letter-spacing: 0.733333px&quot;&gt;助手系统说明&lt;/span&gt;" style="shape=parallelogram;perimeter=parallelogramPerimeter;whiteSpace=wrap;html=1;fixedSize=1;" vertex="1" parent="gPckJBPebu3lDU5of1CX-2">
          <mxGeometry x="180" y="540" width="120" height="40" as="geometry" />
        </mxCell>
        <mxCell id="gPckJBPebu3lDU5of1CX-13" value="&lt;span style=&quot;font-family: &amp;#34;verdana&amp;#34; ; font-weight: 400&quot;&gt;各人物对话&lt;/span&gt;" style="swimlane;html=1;startSize=20;" vertex="1" parent="gPckJBPebu3lDU5of1CX-1">
          <mxGeometry x="320" y="20" width="1170" height="3690" as="geometry" />
        </mxCell>
        <mxCell id="gPckJBPebu3lDU5of1CX-96" style="edgeStyle=orthogonalEdgeStyle;rounded=0;orthogonalLoop=1;jettySize=auto;html=1;entryX=0.5;entryY=0;entryDx=0;entryDy=0;" edge="1" parent="gPckJBPebu3lDU5of1CX-13" source="gPckJBPebu3lDU5of1CX-14" target="gPckJBPebu3lDU5of1CX-16">
          <mxGeometry relative="1" as="geometry">
            <Array as="points">
              <mxPoint x="170" y="765" />
              <mxPoint x="78" y="765" />
            </Array>
          </mxGeometry>
        </mxCell>
        <mxCell id="gPckJBPebu3lDU5of1CX-98" style="edgeStyle=orthogonalEdgeStyle;rounded=0;orthogonalLoop=1;jettySize=auto;html=1;entryX=0.5;entryY=0;entryDx=0;entryDy=0;" edge="1" parent="gPckJBPebu3lDU5of1CX-13" source="gPckJBPebu3lDU5of1CX-14" target="gPckJBPebu3lDU5of1CX-97">
          <mxGeometry relative="1" as="geometry">
            <Array as="points">
              <mxPoint x="170" y="765" />
              <mxPoint x="265" y="765" />
            </Array>
          </mxGeometry>
        </mxCell>
        <mxCell id="gPckJBPebu3lDU5of1CX-119" style="edgeStyle=orthogonalEdgeStyle;rounded=0;orthogonalLoop=1;jettySize=auto;html=1;entryX=0.5;entryY=0;entryDx=0;entryDy=0;" edge="1" parent="gPckJBPebu3lDU5of1CX-13" source="gPckJBPebu3lDU5of1CX-14" target="gPckJBPebu3lDU5of1CX-115">
          <mxGeometry relative="1" as="geometry">
            <Array as="points">
              <mxPoint x="535" y="730" />
              <mxPoint x="535" y="730" />
            </Array>
          </mxGeometry>
        </mxCell>
        <mxCell id="gPckJBPebu3lDU5of1CX-210" style="edgeStyle=orthogonalEdgeStyle;rounded=0;orthogonalLoop=1;jettySize=auto;html=1;entryX=0.5;entryY=0;entryDx=0;entryDy=0;" edge="1" parent="gPckJBPebu3lDU5of1CX-13" source="gPckJBPebu3lDU5of1CX-14" target="gPckJBPebu3lDU5of1CX-188">
          <mxGeometry relative="1" as="geometry">
            <Array as="points">
              <mxPoint x="905" y="720" />
              <mxPoint x="905" y="720" />
            </Array>
          </mxGeometry>
        </mxCell>
        <mxCell id="gPckJBPebu3lDU5of1CX-14" value="" style="whiteSpace=wrap;html=1;rounded=0;shadow=0;comic=0;labelBackgroundColor=none;strokeWidth=1;fillColor=#000000;fontFamily=Verdana;fontSize=12;align=center;rotation=0;" vertex="1" parent="gPckJBPebu3lDU5of1CX-13">
          <mxGeometry y="700" width="1160" height="10" as="geometry" />
        </mxCell>
        <mxCell id="gPckJBPebu3lDU5of1CX-129" style="edgeStyle=orthogonalEdgeStyle;rounded=0;orthogonalLoop=1;jettySize=auto;html=1;entryX=1;entryY=0.5;entryDx=0;entryDy=0;" edge="1" parent="gPckJBPebu3lDU5of1CX-13" source="gPckJBPebu3lDU5of1CX-16" target="gPckJBPebu3lDU5of1CX-104">
          <mxGeometry relative="1" as="geometry">
            <Array as="points">
              <mxPoint x="78" y="900" />
              <mxPoint x="170" y="900" />
              <mxPoint x="170" y="1120" />
            </Array>
          </mxGeometry>
        </mxCell>
        <mxCell id="gPckJBPebu3lDU5of1CX-16" value="EP04-02_Vera_First" style="rounded=1;whiteSpace=wrap;html=1;shadow=0;comic=0;labelBackgroundColor=none;strokeWidth=1;fontFamily=Verdana;fontSize=12;align=center;arcSize=50;" vertex="1" parent="gPckJBPebu3lDU5of1CX-13">
          <mxGeometry x="10" y="820" width="135.95" height="30" as="geometry" />
        </mxCell>
        <mxCell id="gPckJBPebu3lDU5of1CX-18" style="edgeStyle=none;rounded=0;html=1;labelBackgroundColor=none;startArrow=none;startFill=0;startSize=5;endArrow=oval;endFill=0;endSize=5;jettySize=auto;orthogonalLoop=1;strokeWidth=1;fontFamily=Verdana;fontSize=12;dashed=1;exitX=0.88;exitY=0.081;exitDx=0;exitDy=0;exitPerimeter=0;" edge="1" parent="gPckJBPebu3lDU5of1CX-13" source="gPckJBPebu3lDU5of1CX-19" target="gPckJBPebu3lDU5of1CX-16">
          <mxGeometry relative="1" as="geometry">
            <mxPoint x="85.005" y="794" as="sourcePoint" />
          </mxGeometry>
        </mxCell>
        <mxCell id="gPckJBPebu3lDU5of1CX-19" value="&lt;span&gt;EP04-02&lt;/span&gt;" style="shape=note;whiteSpace=wrap;html=1;rounded=0;shadow=0;comic=0;labelBackgroundColor=none;strokeWidth=1;fontFamily=Verdana;fontSize=12;align=center;size=20;fillColor=#dae8fc;strokeColor=#6c8ebf;" vertex="1" parent="gPckJBPebu3lDU5of1CX-13">
          <mxGeometry x="-17" y="860" width="77" height="42" as="geometry" />
        </mxCell>
        <mxCell id="gPckJBPebu3lDU5of1CX-22" value="" style="whiteSpace=wrap;html=1;rounded=0;shadow=0;comic=0;labelBackgroundColor=none;strokeWidth=1;fillColor=#000000;fontFamily=Verdana;fontSize=12;align=center;rotation=0;" vertex="1" parent="gPckJBPebu3lDU5of1CX-13">
          <mxGeometry x="5" y="1370" width="1160" height="10" as="geometry" />
        </mxCell>
        <mxCell id="gPckJBPebu3lDU5of1CX-24" value="&lt;p style=&quot;margin: 0cm ; line-height: 18.0pt&quot;&gt;&lt;span style=&quot;font-size: 10.5pt ; color: #262626 ; letter-spacing: 0.55pt&quot;&gt;与薇拉交谈&lt;/span&gt;&lt;span lang=&quot;EN-US&quot; style=&quot;font-size: 10.5pt ; color: #262626 ; letter-spacing: 0.55pt&quot;&gt;&lt;/span&gt;&lt;/p&gt;" style="shape=parallelogram;perimeter=parallelogramPerimeter;whiteSpace=wrap;html=1;fixedSize=1;" vertex="1" parent="gPckJBPebu3lDU5of1CX-13">
          <mxGeometry x="110" y="750" width="120" height="30" as="geometry" />
        </mxCell>
        <mxCell id="gPckJBPebu3lDU5of1CX-126" style="edgeStyle=orthogonalEdgeStyle;rounded=0;orthogonalLoop=1;jettySize=auto;html=1;entryX=1;entryY=0.5;entryDx=0;entryDy=0;" edge="1" parent="gPckJBPebu3lDU5of1CX-13" source="gPckJBPebu3lDU5of1CX-97" target="gPckJBPebu3lDU5of1CX-101">
          <mxGeometry relative="1" as="geometry">
            <Array as="points">
              <mxPoint x="265" y="900" />
              <mxPoint x="170" y="900" />
              <mxPoint x="170" y="1010" />
            </Array>
          </mxGeometry>
        </mxCell>
        <mxCell id="gPckJBPebu3lDU5of1CX-128" style="edgeStyle=orthogonalEdgeStyle;rounded=0;orthogonalLoop=1;jettySize=auto;html=1;entryX=0;entryY=0.5;entryDx=0;entryDy=0;" edge="1" parent="gPckJBPebu3lDU5of1CX-13" source="gPckJBPebu3lDU5of1CX-97" target="gPckJBPebu3lDU5of1CX-103">
          <mxGeometry relative="1" as="geometry">
            <Array as="points">
              <mxPoint x="265" y="900" />
              <mxPoint x="170" y="900" />
              <mxPoint x="170" y="1120" />
            </Array>
          </mxGeometry>
        </mxCell>
        <mxCell id="gPckJBPebu3lDU5of1CX-97" value="EP04-02_Vera_Second" style="rounded=1;whiteSpace=wrap;html=1;shadow=0;comic=0;labelBackgroundColor=none;strokeWidth=1;fontFamily=Verdana;fontSize=12;align=center;arcSize=50;" vertex="1" parent="gPckJBPebu3lDU5of1CX-13">
          <mxGeometry x="190" y="820" width="150" height="30" as="geometry" />
        </mxCell>
        <mxCell id="gPckJBPebu3lDU5of1CX-101" value="&lt;span style=&quot;color: rgb(0 , 0 , 0) ; font-family: &amp;#34;verdana&amp;#34;&quot;&gt;EP04-02_Vera&lt;/span&gt;&lt;span style=&quot;font-family: &amp;#34;verdana&amp;#34;&quot;&gt;_choice_1&lt;/span&gt;" style="whiteSpace=wrap;html=1;align=center;verticalAlign=middle;treeFolding=1;treeMoving=1;fillColor=#f5f5f5;strokeColor=#666666;fontColor=#333333;" vertex="1" collapsed="1" parent="gPckJBPebu3lDU5of1CX-13">
          <mxGeometry x="10" y="980" width="120" height="60" as="geometry" />
        </mxCell>
        <mxCell id="gPckJBPebu3lDU5of1CX-102" value="&lt;span style=&quot;color: rgb(0 , 0 , 0) ; font-family: &amp;#34;verdana&amp;#34;&quot;&gt;EP04-02_Vera&lt;/span&gt;&lt;span style=&quot;font-family: &amp;#34;verdana&amp;#34;&quot;&gt;_choice_2&lt;/span&gt;" style="whiteSpace=wrap;html=1;align=center;verticalAlign=middle;treeFolding=1;treeMoving=1;fillColor=#f5f5f5;strokeColor=#666666;fontColor=#333333;" vertex="1" collapsed="1" parent="gPckJBPebu3lDU5of1CX-13">
          <mxGeometry x="217.69" y="980" width="112.31" height="60" as="geometry" />
        </mxCell>
        <mxCell id="gPckJBPebu3lDU5of1CX-103" value="&lt;span style=&quot;color: rgb(0 , 0 , 0) ; font-family: &amp;#34;verdana&amp;#34;&quot;&gt;EP04-02_Vera&lt;/span&gt;&lt;span style=&quot;font-family: &amp;#34;verdana&amp;#34;&quot;&gt;_choice_4&lt;/span&gt;" style="whiteSpace=wrap;html=1;align=center;verticalAlign=middle;treeFolding=1;treeMoving=1;fillColor=#f5f5f5;strokeColor=#666666;fontColor=#333333;" vertex="1" parent="gPckJBPebu3lDU5of1CX-13">
          <mxGeometry x="220" y="1090" width="110" height="60" as="geometry" />
        </mxCell>
        <mxCell id="gPckJBPebu3lDU5of1CX-104" value="&lt;span style=&quot;color: rgb(0 , 0 , 0) ; font-family: &amp;#34;verdana&amp;#34;&quot;&gt;EP04-02_Vera&lt;/span&gt;&lt;span style=&quot;font-family: &amp;#34;verdana&amp;#34;&quot;&gt;_choice_3&lt;/span&gt;" style="whiteSpace=wrap;html=1;align=center;verticalAlign=middle;treeFolding=1;treeMoving=1;fillColor=#f5f5f5;strokeColor=#666666;fontColor=#333333;" vertex="1" parent="gPckJBPebu3lDU5of1CX-13">
          <mxGeometry x="20" y="1090" width="110" height="60" as="geometry" />
        </mxCell>
        <mxCell id="gPckJBPebu3lDU5of1CX-105" style="edgeStyle=orthogonalEdgeStyle;rounded=0;orthogonalLoop=1;jettySize=auto;html=1;" edge="1" parent="gPckJBPebu3lDU5of1CX-13" source="gPckJBPebu3lDU5of1CX-101">
          <mxGeometry relative="1" as="geometry">
            <mxPoint x="167.69" y="960" as="targetPoint" />
            <Array as="points">
              <mxPoint x="79.69000000000005" y="960" />
            </Array>
          </mxGeometry>
        </mxCell>
        <mxCell id="gPckJBPebu3lDU5of1CX-106" style="edgeStyle=orthogonalEdgeStyle;rounded=0;orthogonalLoop=1;jettySize=auto;html=1;" edge="1" parent="gPckJBPebu3lDU5of1CX-13" source="gPckJBPebu3lDU5of1CX-102">
          <mxGeometry relative="1" as="geometry">
            <mxPoint x="167.69" y="960" as="targetPoint" />
            <Array as="points">
              <mxPoint x="267.69" y="960" />
              <mxPoint x="207.69" y="960" />
            </Array>
          </mxGeometry>
        </mxCell>
        <mxCell id="gPckJBPebu3lDU5of1CX-107" style="edgeStyle=orthogonalEdgeStyle;rounded=0;orthogonalLoop=1;jettySize=auto;html=1;strokeColor=#000000;" edge="1" parent="gPckJBPebu3lDU5of1CX-13" source="gPckJBPebu3lDU5of1CX-104">
          <mxGeometry relative="1" as="geometry">
            <mxPoint x="167.69" y="1060" as="targetPoint" />
            <Array as="points">
              <mxPoint x="79.69000000000005" y="1060" />
              <mxPoint x="167.69" y="1060" />
            </Array>
          </mxGeometry>
        </mxCell>
        <mxCell id="gPckJBPebu3lDU5of1CX-108" style="edgeStyle=orthogonalEdgeStyle;rounded=0;orthogonalLoop=1;jettySize=auto;html=1;strokeColor=#000000;" edge="1" parent="gPckJBPebu3lDU5of1CX-13" source="gPckJBPebu3lDU5of1CX-103">
          <mxGeometry relative="1" as="geometry">
            <mxPoint x="167.69" y="1060" as="targetPoint" />
            <Array as="points">
              <mxPoint x="269.69" y="1060" />
            </Array>
          </mxGeometry>
        </mxCell>
        <mxCell id="gPckJBPebu3lDU5of1CX-125" style="edgeStyle=orthogonalEdgeStyle;rounded=0;orthogonalLoop=1;jettySize=auto;html=1;" edge="1" parent="gPckJBPebu3lDU5of1CX-13" source="gPckJBPebu3lDU5of1CX-110" target="gPckJBPebu3lDU5of1CX-22">
          <mxGeometry relative="1" as="geometry">
            <mxPoint x="170" y="1360" as="targetPoint" />
            <Array as="points">
              <mxPoint x="90" y="1310" />
              <mxPoint x="170" y="1310" />
            </Array>
          </mxGeometry>
        </mxCell>
        <mxCell id="gPckJBPebu3lDU5of1CX-110" value="&lt;span style=&quot;color: rgb(0 , 0 , 0) ; font-family: &amp;#34;verdana&amp;#34;&quot;&gt;EP04-02_Vera&lt;/span&gt;&lt;span style=&quot;font-family: &amp;#34;verdana&amp;#34;&quot;&gt;_choice_5&lt;/span&gt;" style="whiteSpace=wrap;html=1;align=center;verticalAlign=middle;treeFolding=1;treeMoving=1;fillColor=#f5f5f5;strokeColor=#666666;fontColor=#333333;" vertex="1" parent="gPckJBPebu3lDU5of1CX-13">
          <mxGeometry x="30" y="1210" width="120" height="60" as="geometry" />
        </mxCell>
        <mxCell id="gPckJBPebu3lDU5of1CX-113" value="EP04-02_&lt;span style=&quot;font-family: &amp;#34;verdana&amp;#34;&quot;&gt;Virgil&lt;/span&gt;_First" style="rounded=1;whiteSpace=wrap;html=1;shadow=0;comic=0;labelBackgroundColor=none;strokeWidth=1;fontFamily=Verdana;fontSize=12;align=center;arcSize=50;" vertex="1" parent="gPckJBPebu3lDU5of1CX-13">
          <mxGeometry x="375" y="820" width="135.95" height="30" as="geometry" />
        </mxCell>
        <mxCell id="gPckJBPebu3lDU5of1CX-120" style="edgeStyle=orthogonalEdgeStyle;rounded=0;orthogonalLoop=1;jettySize=auto;html=1;" edge="1" parent="gPckJBPebu3lDU5of1CX-13" source="gPckJBPebu3lDU5of1CX-115" target="gPckJBPebu3lDU5of1CX-113">
          <mxGeometry relative="1" as="geometry" />
        </mxCell>
        <mxCell id="gPckJBPebu3lDU5of1CX-121" style="edgeStyle=orthogonalEdgeStyle;rounded=0;orthogonalLoop=1;jettySize=auto;html=1;entryX=0.588;entryY=-0.067;entryDx=0;entryDy=0;entryPerimeter=0;" edge="1" parent="gPckJBPebu3lDU5of1CX-13" source="gPckJBPebu3lDU5of1CX-115" target="gPckJBPebu3lDU5of1CX-116">
          <mxGeometry relative="1" as="geometry" />
        </mxCell>
        <mxCell id="gPckJBPebu3lDU5of1CX-115" value="&lt;p style=&quot;margin: 0cm ; line-height: 18.0pt&quot;&gt;&lt;span style=&quot;font-size: 10.5pt ; color: #262626 ; letter-spacing: 0.55pt&quot;&gt;与薇拉交谈&lt;/span&gt;&lt;span lang=&quot;EN-US&quot; style=&quot;font-size: 10.5pt ; color: #262626 ; letter-spacing: 0.55pt&quot;&gt;&lt;/span&gt;&lt;/p&gt;" style="shape=parallelogram;perimeter=parallelogramPerimeter;whiteSpace=wrap;html=1;fixedSize=1;" vertex="1" parent="gPckJBPebu3lDU5of1CX-13">
          <mxGeometry x="475" y="750" width="120" height="30" as="geometry" />
        </mxCell>
        <mxCell id="gPckJBPebu3lDU5of1CX-116" value="EP04-02_&lt;span style=&quot;font-family: &amp;#34;verdana&amp;#34;&quot;&gt;Virgil&lt;/span&gt;_Second" style="rounded=1;whiteSpace=wrap;html=1;shadow=0;comic=0;labelBackgroundColor=none;strokeWidth=1;fontFamily=Verdana;fontSize=12;align=center;arcSize=50;" vertex="1" parent="gPckJBPebu3lDU5of1CX-13">
          <mxGeometry x="555" y="820" width="150" height="30" as="geometry" />
        </mxCell>
        <mxCell id="gPckJBPebu3lDU5of1CX-117" value="&lt;span style=&quot;font-size: 10.5pt ; color: #262626 ; letter-spacing: 0.55pt&quot;&gt;第一次对话&lt;/span&gt;" style="text;html=1;align=center;verticalAlign=middle;resizable=0;points=[];autosize=1;" vertex="1" parent="gPckJBPebu3lDU5of1CX-13">
          <mxGeometry x="360" y="780" width="90" height="20" as="geometry" />
        </mxCell>
        <mxCell id="gPckJBPebu3lDU5of1CX-118" value="&lt;span style=&quot;font-size: 10.5pt ; color: #262626 ; letter-spacing: 0.55pt&quot;&gt;第二次对话&lt;/span&gt;" style="text;html=1;align=center;verticalAlign=middle;resizable=0;points=[];autosize=1;" vertex="1" parent="gPckJBPebu3lDU5of1CX-13">
          <mxGeometry x="610" y="770" width="90" height="20" as="geometry" />
        </mxCell>
        <mxCell id="gPckJBPebu3lDU5of1CX-124" style="edgeStyle=orthogonalEdgeStyle;rounded=0;orthogonalLoop=1;jettySize=auto;html=1;entryX=0.5;entryY=0;entryDx=0;entryDy=0;exitX=0.5;exitY=1;exitDx=0;exitDy=0;" edge="1" parent="gPckJBPebu3lDU5of1CX-13" source="gPckJBPebu3lDU5of1CX-16" target="gPckJBPebu3lDU5of1CX-110">
          <mxGeometry relative="1" as="geometry">
            <mxPoint x="170" y="1180" as="targetPoint" />
            <Array as="points">
              <mxPoint x="78" y="900" />
              <mxPoint x="170" y="900" />
              <mxPoint x="170" y="1170" />
              <mxPoint x="90" y="1170" />
            </Array>
          </mxGeometry>
        </mxCell>
        <mxCell id="gPckJBPebu3lDU5of1CX-127" style="edgeStyle=orthogonalEdgeStyle;rounded=0;orthogonalLoop=1;jettySize=auto;html=1;entryX=0;entryY=0.5;entryDx=0;entryDy=0;exitX=0.5;exitY=1;exitDx=0;exitDy=0;" edge="1" parent="gPckJBPebu3lDU5of1CX-13" source="gPckJBPebu3lDU5of1CX-97" target="gPckJBPebu3lDU5of1CX-102">
          <mxGeometry relative="1" as="geometry">
            <mxPoint x="275" y="860" as="sourcePoint" />
            <mxPoint x="140" y="1020" as="targetPoint" />
            <Array as="points">
              <mxPoint x="265" y="900" />
              <mxPoint x="170" y="900" />
              <mxPoint x="170" y="1010" />
            </Array>
          </mxGeometry>
        </mxCell>
        <mxCell id="gPckJBPebu3lDU5of1CX-130" value="&lt;span&gt;EP04-02&lt;/span&gt;" style="shape=note;whiteSpace=wrap;html=1;rounded=0;shadow=0;comic=0;labelBackgroundColor=none;strokeWidth=1;fontFamily=Verdana;fontSize=12;align=center;size=20;fillColor=#dae8fc;strokeColor=#6c8ebf;" vertex="1" parent="gPckJBPebu3lDU5of1CX-13">
          <mxGeometry x="320" y="870" width="77" height="42" as="geometry" />
        </mxCell>
        <mxCell id="gPckJBPebu3lDU5of1CX-131" style="edgeStyle=none;rounded=0;html=1;labelBackgroundColor=none;startArrow=none;startFill=0;startSize=5;endArrow=oval;endFill=0;endSize=5;jettySize=auto;orthogonalLoop=1;strokeWidth=1;fontFamily=Verdana;fontSize=12;dashed=1;exitX=0.281;exitY=-0.038;exitDx=0;exitDy=0;exitPerimeter=0;entryX=0.893;entryY=1.08;entryDx=0;entryDy=0;entryPerimeter=0;" edge="1" parent="gPckJBPebu3lDU5of1CX-13" source="gPckJBPebu3lDU5of1CX-130" target="gPckJBPebu3lDU5of1CX-97">
          <mxGeometry relative="1" as="geometry">
            <mxPoint x="60.75999999999999" y="873.402" as="sourcePoint" />
            <mxPoint x="73.60189247236099" y="860" as="targetPoint" />
          </mxGeometry>
        </mxCell>
        <mxCell id="gPckJBPebu3lDU5of1CX-132" style="edgeStyle=none;rounded=0;html=1;labelBackgroundColor=none;startArrow=none;startFill=0;startSize=5;endArrow=oval;endFill=0;endSize=5;jettySize=auto;orthogonalLoop=1;strokeWidth=1;fontFamily=Verdana;fontSize=12;dashed=1;exitX=0;exitY=0;exitDx=57;exitDy=0;exitPerimeter=0;entryX=0.084;entryY=1.053;entryDx=0;entryDy=0;entryPerimeter=0;" edge="1" parent="gPckJBPebu3lDU5of1CX-13" source="gPckJBPebu3lDU5of1CX-130" target="gPckJBPebu3lDU5of1CX-113">
          <mxGeometry relative="1" as="geometry">
            <mxPoint x="351.63699999999994" y="878.404" as="sourcePoint" />
            <mxPoint x="333.95000000000005" y="862.4000000000001" as="targetPoint" />
          </mxGeometry>
        </mxCell>
        <mxCell id="gPckJBPebu3lDU5of1CX-142" style="edgeStyle=orthogonalEdgeStyle;rounded=0;orthogonalLoop=1;jettySize=auto;html=1;entryX=1;entryY=0.5;entryDx=0;entryDy=0;" edge="1" parent="gPckJBPebu3lDU5of1CX-13" target="gPckJBPebu3lDU5of1CX-149">
          <mxGeometry relative="1" as="geometry">
            <mxPoint x="448" y="850" as="sourcePoint" />
            <Array as="points">
              <mxPoint x="448" y="900" />
              <mxPoint x="540" y="900" />
              <mxPoint x="540" y="1120" />
            </Array>
          </mxGeometry>
        </mxCell>
        <mxCell id="gPckJBPebu3lDU5of1CX-144" style="edgeStyle=orthogonalEdgeStyle;rounded=0;orthogonalLoop=1;jettySize=auto;html=1;entryX=1;entryY=0.5;entryDx=0;entryDy=0;" edge="1" parent="gPckJBPebu3lDU5of1CX-13" target="gPckJBPebu3lDU5of1CX-146">
          <mxGeometry relative="1" as="geometry">
            <mxPoint x="635" y="850" as="sourcePoint" />
            <Array as="points">
              <mxPoint x="635" y="900" />
              <mxPoint x="540" y="900" />
              <mxPoint x="540" y="1010" />
            </Array>
          </mxGeometry>
        </mxCell>
        <mxCell id="gPckJBPebu3lDU5of1CX-145" style="edgeStyle=orthogonalEdgeStyle;rounded=0;orthogonalLoop=1;jettySize=auto;html=1;entryX=0;entryY=0.5;entryDx=0;entryDy=0;" edge="1" parent="gPckJBPebu3lDU5of1CX-13" target="gPckJBPebu3lDU5of1CX-148">
          <mxGeometry relative="1" as="geometry">
            <mxPoint x="635" y="850" as="sourcePoint" />
            <Array as="points">
              <mxPoint x="635" y="900" />
              <mxPoint x="540" y="900" />
              <mxPoint x="540" y="1120" />
            </Array>
          </mxGeometry>
        </mxCell>
        <mxCell id="gPckJBPebu3lDU5of1CX-146" value="&lt;span style=&quot;color: rgb(0 , 0 , 0) ; font-family: &amp;#34;verdana&amp;#34;&quot;&gt;EP04-02_Virgil&lt;/span&gt;&lt;span style=&quot;font-family: &amp;#34;verdana&amp;#34;&quot;&gt;_choice_1&lt;/span&gt;" style="whiteSpace=wrap;html=1;align=center;verticalAlign=middle;treeFolding=1;treeMoving=1;fillColor=#f5f5f5;strokeColor=#666666;fontColor=#333333;" vertex="1" collapsed="1" parent="gPckJBPebu3lDU5of1CX-13">
          <mxGeometry x="400" y="980" width="100" height="60" as="geometry" />
        </mxCell>
        <mxCell id="gPckJBPebu3lDU5of1CX-147" value="&lt;span style=&quot;color: rgb(0 , 0 , 0) ; font-family: &amp;#34;verdana&amp;#34;&quot;&gt;EP04-02_Virgil&lt;/span&gt;&lt;span style=&quot;font-family: &amp;#34;verdana&amp;#34;&quot;&gt;_choice_2&lt;/span&gt;" style="whiteSpace=wrap;html=1;align=center;verticalAlign=middle;treeFolding=1;treeMoving=1;fillColor=#f5f5f5;strokeColor=#666666;fontColor=#333333;" vertex="1" collapsed="1" parent="gPckJBPebu3lDU5of1CX-13">
          <mxGeometry x="587.6899999999998" y="980" width="100" height="60" as="geometry" />
        </mxCell>
        <mxCell id="gPckJBPebu3lDU5of1CX-148" value="&lt;span style=&quot;color: rgb(0 , 0 , 0) ; font-family: &amp;#34;verdana&amp;#34;&quot;&gt;EP04-02_Virgil&lt;/span&gt;&lt;span style=&quot;font-family: &amp;#34;verdana&amp;#34;&quot;&gt;_choice_4&lt;/span&gt;" style="whiteSpace=wrap;html=1;align=center;verticalAlign=middle;treeFolding=1;treeMoving=1;fillColor=#f5f5f5;strokeColor=#666666;fontColor=#333333;" vertex="1" parent="gPckJBPebu3lDU5of1CX-13">
          <mxGeometry x="590" y="1090" width="100" height="60" as="geometry" />
        </mxCell>
        <mxCell id="gPckJBPebu3lDU5of1CX-149" value="&lt;span style=&quot;color: rgb(0 , 0 , 0) ; font-family: &amp;#34;verdana&amp;#34;&quot;&gt;EP04-02_Virgil&lt;/span&gt;&lt;span style=&quot;font-family: &amp;#34;verdana&amp;#34;&quot;&gt;_choice_3&lt;/span&gt;" style="whiteSpace=wrap;html=1;align=center;verticalAlign=middle;treeFolding=1;treeMoving=1;fillColor=#f5f5f5;strokeColor=#666666;fontColor=#333333;" vertex="1" parent="gPckJBPebu3lDU5of1CX-13">
          <mxGeometry x="400" y="1090" width="100" height="60" as="geometry" />
        </mxCell>
        <mxCell id="gPckJBPebu3lDU5of1CX-150" style="edgeStyle=orthogonalEdgeStyle;rounded=0;orthogonalLoop=1;jettySize=auto;html=1;" edge="1" parent="gPckJBPebu3lDU5of1CX-13" source="gPckJBPebu3lDU5of1CX-146">
          <mxGeometry relative="1" as="geometry">
            <mxPoint x="537.69" y="960" as="targetPoint" />
            <Array as="points">
              <mxPoint x="449.69000000000005" y="960" />
            </Array>
          </mxGeometry>
        </mxCell>
        <mxCell id="gPckJBPebu3lDU5of1CX-151" style="edgeStyle=orthogonalEdgeStyle;rounded=0;orthogonalLoop=1;jettySize=auto;html=1;" edge="1" parent="gPckJBPebu3lDU5of1CX-13" source="gPckJBPebu3lDU5of1CX-147">
          <mxGeometry relative="1" as="geometry">
            <mxPoint x="537.69" y="960" as="targetPoint" />
            <Array as="points">
              <mxPoint x="637.69" y="960" />
              <mxPoint x="577.69" y="960" />
            </Array>
          </mxGeometry>
        </mxCell>
        <mxCell id="gPckJBPebu3lDU5of1CX-152" style="edgeStyle=orthogonalEdgeStyle;rounded=0;orthogonalLoop=1;jettySize=auto;html=1;strokeColor=#000000;" edge="1" parent="gPckJBPebu3lDU5of1CX-13" source="gPckJBPebu3lDU5of1CX-149">
          <mxGeometry relative="1" as="geometry">
            <mxPoint x="537.69" y="1060" as="targetPoint" />
            <Array as="points">
              <mxPoint x="449.69000000000005" y="1060" />
              <mxPoint x="537.69" y="1060" />
            </Array>
          </mxGeometry>
        </mxCell>
        <mxCell id="gPckJBPebu3lDU5of1CX-153" style="edgeStyle=orthogonalEdgeStyle;rounded=0;orthogonalLoop=1;jettySize=auto;html=1;strokeColor=#000000;" edge="1" parent="gPckJBPebu3lDU5of1CX-13" source="gPckJBPebu3lDU5of1CX-148">
          <mxGeometry relative="1" as="geometry">
            <mxPoint x="537.69" y="1060" as="targetPoint" />
            <Array as="points">
              <mxPoint x="639.69" y="1060" />
            </Array>
          </mxGeometry>
        </mxCell>
        <mxCell id="gPckJBPebu3lDU5of1CX-155" value="&lt;span style=&quot;color: rgb(0 , 0 , 0) ; font-family: &amp;#34;verdana&amp;#34;&quot;&gt;EP04-02_Virgil&lt;/span&gt;&lt;span style=&quot;font-family: &amp;#34;verdana&amp;#34;&quot;&gt;_choice_5&lt;/span&gt;" style="whiteSpace=wrap;html=1;align=center;verticalAlign=middle;treeFolding=1;treeMoving=1;fillColor=#f5f5f5;strokeColor=#666666;fontColor=#333333;" vertex="1" parent="gPckJBPebu3lDU5of1CX-13">
          <mxGeometry x="590" y="1200" width="100" height="60" as="geometry" />
        </mxCell>
        <mxCell id="gPckJBPebu3lDU5of1CX-157" style="edgeStyle=orthogonalEdgeStyle;rounded=0;orthogonalLoop=1;jettySize=auto;html=1;entryX=0.5;entryY=0;entryDx=0;entryDy=0;exitX=0.5;exitY=1;exitDx=0;exitDy=0;" edge="1" parent="gPckJBPebu3lDU5of1CX-13" target="gPckJBPebu3lDU5of1CX-155">
          <mxGeometry relative="1" as="geometry">
            <mxPoint x="190" y="2240" as="targetPoint" />
            <mxPoint x="447.9749999999999" y="850" as="sourcePoint" />
            <Array as="points">
              <mxPoint x="448" y="900" />
              <mxPoint x="540" y="900" />
              <mxPoint x="540" y="1170" />
              <mxPoint x="640" y="1170" />
            </Array>
          </mxGeometry>
        </mxCell>
        <mxCell id="gPckJBPebu3lDU5of1CX-158" style="edgeStyle=orthogonalEdgeStyle;rounded=0;orthogonalLoop=1;jettySize=auto;html=1;entryX=0;entryY=0.5;entryDx=0;entryDy=0;exitX=0.5;exitY=1;exitDx=0;exitDy=0;" edge="1" parent="gPckJBPebu3lDU5of1CX-13" target="gPckJBPebu3lDU5of1CX-147">
          <mxGeometry relative="1" as="geometry">
            <mxPoint x="635" y="850" as="sourcePoint" />
            <mxPoint x="160" y="2080" as="targetPoint" />
            <Array as="points">
              <mxPoint x="635" y="900" />
              <mxPoint x="540" y="900" />
              <mxPoint x="540" y="1010" />
            </Array>
          </mxGeometry>
        </mxCell>
        <mxCell id="gPckJBPebu3lDU5of1CX-159" value="EP04-02_&lt;span style=&quot;font-family: &amp;#34;verdana&amp;#34;&quot;&gt;Virgil&lt;/span&gt;_First" style="rounded=1;whiteSpace=wrap;html=1;shadow=0;comic=0;labelBackgroundColor=none;strokeWidth=1;fontFamily=Verdana;fontSize=12;align=center;arcSize=50;" vertex="1" parent="gPckJBPebu3lDU5of1CX-13">
          <mxGeometry x="375" y="820" width="135.95" height="30" as="geometry" />
        </mxCell>
        <mxCell id="gPckJBPebu3lDU5of1CX-160" style="edgeStyle=orthogonalEdgeStyle;rounded=0;orthogonalLoop=1;jettySize=auto;html=1;" edge="1" source="gPckJBPebu3lDU5of1CX-162" target="gPckJBPebu3lDU5of1CX-159" parent="gPckJBPebu3lDU5of1CX-13">
          <mxGeometry relative="1" as="geometry" />
        </mxCell>
        <mxCell id="gPckJBPebu3lDU5of1CX-161" style="edgeStyle=orthogonalEdgeStyle;rounded=0;orthogonalLoop=1;jettySize=auto;html=1;entryX=0.588;entryY=-0.067;entryDx=0;entryDy=0;entryPerimeter=0;" edge="1" source="gPckJBPebu3lDU5of1CX-162" target="gPckJBPebu3lDU5of1CX-163" parent="gPckJBPebu3lDU5of1CX-13">
          <mxGeometry relative="1" as="geometry" />
        </mxCell>
        <mxCell id="gPckJBPebu3lDU5of1CX-162" value="&lt;p style=&quot;margin: 0cm ; line-height: 18.0pt&quot;&gt;&lt;span style=&quot;font-size: 10.5pt ; color: #262626 ; letter-spacing: 0.55pt&quot;&gt;与维吉尔交谈&lt;/span&gt;&lt;span lang=&quot;EN-US&quot; style=&quot;font-size: 10.5pt ; color: #262626 ; letter-spacing: 0.55pt&quot;&gt;&lt;/span&gt;&lt;/p&gt;" style="shape=parallelogram;perimeter=parallelogramPerimeter;whiteSpace=wrap;html=1;fixedSize=1;" vertex="1" parent="gPckJBPebu3lDU5of1CX-13">
          <mxGeometry x="475" y="750" width="120" height="30" as="geometry" />
        </mxCell>
        <mxCell id="gPckJBPebu3lDU5of1CX-163" value="EP04-02_&lt;span style=&quot;font-family: &amp;#34;verdana&amp;#34;&quot;&gt;Virgil&lt;/span&gt;_Second" style="rounded=1;whiteSpace=wrap;html=1;shadow=0;comic=0;labelBackgroundColor=none;strokeWidth=1;fontFamily=Verdana;fontSize=12;align=center;arcSize=50;" vertex="1" parent="gPckJBPebu3lDU5of1CX-13">
          <mxGeometry x="555" y="820" width="150" height="30" as="geometry" />
        </mxCell>
        <mxCell id="gPckJBPebu3lDU5of1CX-164" value="&lt;span style=&quot;font-size: 10.5pt ; color: #262626 ; letter-spacing: 0.55pt&quot;&gt;第一次对话&lt;/span&gt;" style="text;html=1;align=center;verticalAlign=middle;resizable=0;points=[];autosize=1;" vertex="1" parent="gPckJBPebu3lDU5of1CX-13">
          <mxGeometry x="360" y="780" width="90" height="20" as="geometry" />
        </mxCell>
        <mxCell id="gPckJBPebu3lDU5of1CX-165" value="&lt;span style=&quot;font-size: 10.5pt ; color: #262626 ; letter-spacing: 0.55pt&quot;&gt;第二次对话&lt;/span&gt;" style="text;html=1;align=center;verticalAlign=middle;resizable=0;points=[];autosize=1;" vertex="1" parent="gPckJBPebu3lDU5of1CX-13">
          <mxGeometry x="610" y="770" width="90" height="20" as="geometry" />
        </mxCell>
        <mxCell id="gPckJBPebu3lDU5of1CX-166" style="edgeStyle=none;rounded=0;html=1;labelBackgroundColor=none;startArrow=none;startFill=0;startSize=5;endArrow=oval;endFill=0;endSize=5;jettySize=auto;orthogonalLoop=1;strokeWidth=1;fontFamily=Verdana;fontSize=12;dashed=1;exitX=0.281;exitY=-0.038;exitDx=0;exitDy=0;exitPerimeter=0;entryX=0.893;entryY=1.08;entryDx=0;entryDy=0;entryPerimeter=0;" edge="1" parent="gPckJBPebu3lDU5of1CX-13">
          <mxGeometry relative="1" as="geometry">
            <mxPoint x="341.63699999999994" y="868.404" as="sourcePoint" />
            <mxPoint x="323.95000000000005" y="852.4000000000001" as="targetPoint" />
          </mxGeometry>
        </mxCell>
        <mxCell id="gPckJBPebu3lDU5of1CX-167" style="edgeStyle=none;rounded=0;html=1;labelBackgroundColor=none;startArrow=none;startFill=0;startSize=5;endArrow=oval;endFill=0;endSize=5;jettySize=auto;orthogonalLoop=1;strokeWidth=1;fontFamily=Verdana;fontSize=12;dashed=1;exitX=0;exitY=0;exitDx=57;exitDy=0;exitPerimeter=0;entryX=0.084;entryY=1.053;entryDx=0;entryDy=0;entryPerimeter=0;" edge="1" target="gPckJBPebu3lDU5of1CX-159" parent="gPckJBPebu3lDU5of1CX-13">
          <mxGeometry relative="1" as="geometry">
            <mxPoint x="377" y="870" as="sourcePoint" />
            <mxPoint x="-16.049999999999955" y="1922.4" as="targetPoint" />
          </mxGeometry>
        </mxCell>
        <mxCell id="gPckJBPebu3lDU5of1CX-168" style="edgeStyle=orthogonalEdgeStyle;rounded=0;orthogonalLoop=1;jettySize=auto;html=1;entryX=1;entryY=0.5;entryDx=0;entryDy=0;" edge="1" target="gPckJBPebu3lDU5of1CX-174" parent="gPckJBPebu3lDU5of1CX-13">
          <mxGeometry relative="1" as="geometry">
            <mxPoint x="448" y="850" as="sourcePoint" />
            <Array as="points">
              <mxPoint x="448" y="900" />
              <mxPoint x="540" y="900" />
              <mxPoint x="540" y="1120" />
            </Array>
          </mxGeometry>
        </mxCell>
        <mxCell id="gPckJBPebu3lDU5of1CX-169" style="edgeStyle=orthogonalEdgeStyle;rounded=0;orthogonalLoop=1;jettySize=auto;html=1;entryX=1;entryY=0.5;entryDx=0;entryDy=0;" edge="1" target="gPckJBPebu3lDU5of1CX-171" parent="gPckJBPebu3lDU5of1CX-13">
          <mxGeometry relative="1" as="geometry">
            <mxPoint x="635" y="850" as="sourcePoint" />
            <Array as="points">
              <mxPoint x="635" y="900" />
              <mxPoint x="540" y="900" />
              <mxPoint x="540" y="1010" />
            </Array>
          </mxGeometry>
        </mxCell>
        <mxCell id="gPckJBPebu3lDU5of1CX-170" style="edgeStyle=orthogonalEdgeStyle;rounded=0;orthogonalLoop=1;jettySize=auto;html=1;entryX=0;entryY=0.5;entryDx=0;entryDy=0;" edge="1" target="gPckJBPebu3lDU5of1CX-173" parent="gPckJBPebu3lDU5of1CX-13">
          <mxGeometry relative="1" as="geometry">
            <mxPoint x="635" y="850" as="sourcePoint" />
            <Array as="points">
              <mxPoint x="635" y="900" />
              <mxPoint x="540" y="900" />
              <mxPoint x="540" y="1120" />
            </Array>
          </mxGeometry>
        </mxCell>
        <mxCell id="gPckJBPebu3lDU5of1CX-171" value="&lt;span style=&quot;color: rgb(0 , 0 , 0) ; font-family: &amp;#34;verdana&amp;#34;&quot;&gt;EP04-02_Virgil&lt;/span&gt;&lt;span style=&quot;font-family: &amp;#34;verdana&amp;#34;&quot;&gt;_choice_1&lt;/span&gt;" style="whiteSpace=wrap;html=1;align=center;verticalAlign=middle;treeFolding=1;treeMoving=1;fillColor=#f5f5f5;strokeColor=#666666;fontColor=#333333;" vertex="1" collapsed="1" parent="gPckJBPebu3lDU5of1CX-13">
          <mxGeometry x="400" y="980" width="100" height="60" as="geometry" />
        </mxCell>
        <mxCell id="gPckJBPebu3lDU5of1CX-172" value="&lt;span style=&quot;color: rgb(0 , 0 , 0) ; font-family: &amp;#34;verdana&amp;#34;&quot;&gt;EP04-02_Virgil&lt;/span&gt;&lt;span style=&quot;font-family: &amp;#34;verdana&amp;#34;&quot;&gt;_choice_2&lt;/span&gt;" style="whiteSpace=wrap;html=1;align=center;verticalAlign=middle;treeFolding=1;treeMoving=1;fillColor=#f5f5f5;strokeColor=#666666;fontColor=#333333;" vertex="1" collapsed="1" parent="gPckJBPebu3lDU5of1CX-13">
          <mxGeometry x="587.6899999999998" y="980" width="100" height="60" as="geometry" />
        </mxCell>
        <mxCell id="gPckJBPebu3lDU5of1CX-173" value="&lt;span style=&quot;color: rgb(0 , 0 , 0) ; font-family: &amp;#34;verdana&amp;#34;&quot;&gt;EP04-02_Virgil&lt;/span&gt;&lt;span style=&quot;font-family: &amp;#34;verdana&amp;#34;&quot;&gt;_choice_4&lt;/span&gt;" style="whiteSpace=wrap;html=1;align=center;verticalAlign=middle;treeFolding=1;treeMoving=1;fillColor=#f5f5f5;strokeColor=#666666;fontColor=#333333;" vertex="1" parent="gPckJBPebu3lDU5of1CX-13">
          <mxGeometry x="590" y="1090" width="100" height="60" as="geometry" />
        </mxCell>
        <mxCell id="gPckJBPebu3lDU5of1CX-174" value="&lt;span style=&quot;color: rgb(0 , 0 , 0) ; font-family: &amp;#34;verdana&amp;#34;&quot;&gt;EP04-02_Virgil&lt;/span&gt;&lt;span style=&quot;font-family: &amp;#34;verdana&amp;#34;&quot;&gt;_choice_3&lt;/span&gt;" style="whiteSpace=wrap;html=1;align=center;verticalAlign=middle;treeFolding=1;treeMoving=1;fillColor=#f5f5f5;strokeColor=#666666;fontColor=#333333;" vertex="1" parent="gPckJBPebu3lDU5of1CX-13">
          <mxGeometry x="400" y="1090" width="100" height="60" as="geometry" />
        </mxCell>
        <mxCell id="gPckJBPebu3lDU5of1CX-175" style="edgeStyle=orthogonalEdgeStyle;rounded=0;orthogonalLoop=1;jettySize=auto;html=1;" edge="1" source="gPckJBPebu3lDU5of1CX-171" parent="gPckJBPebu3lDU5of1CX-13">
          <mxGeometry relative="1" as="geometry">
            <mxPoint x="537.69" y="960" as="targetPoint" />
            <Array as="points">
              <mxPoint x="449.69000000000005" y="960" />
            </Array>
          </mxGeometry>
        </mxCell>
        <mxCell id="gPckJBPebu3lDU5of1CX-176" style="edgeStyle=orthogonalEdgeStyle;rounded=0;orthogonalLoop=1;jettySize=auto;html=1;" edge="1" source="gPckJBPebu3lDU5of1CX-172" parent="gPckJBPebu3lDU5of1CX-13">
          <mxGeometry relative="1" as="geometry">
            <mxPoint x="537.69" y="960" as="targetPoint" />
            <Array as="points">
              <mxPoint x="637.69" y="960" />
              <mxPoint x="577.69" y="960" />
            </Array>
          </mxGeometry>
        </mxCell>
        <mxCell id="gPckJBPebu3lDU5of1CX-177" style="edgeStyle=orthogonalEdgeStyle;rounded=0;orthogonalLoop=1;jettySize=auto;html=1;strokeColor=#000000;" edge="1" source="gPckJBPebu3lDU5of1CX-174" parent="gPckJBPebu3lDU5of1CX-13">
          <mxGeometry relative="1" as="geometry">
            <mxPoint x="537.69" y="1060" as="targetPoint" />
            <Array as="points">
              <mxPoint x="449.69000000000005" y="1060" />
              <mxPoint x="537.69" y="1060" />
            </Array>
          </mxGeometry>
        </mxCell>
        <mxCell id="gPckJBPebu3lDU5of1CX-178" style="edgeStyle=orthogonalEdgeStyle;rounded=0;orthogonalLoop=1;jettySize=auto;html=1;strokeColor=#000000;" edge="1" source="gPckJBPebu3lDU5of1CX-173" parent="gPckJBPebu3lDU5of1CX-13">
          <mxGeometry relative="1" as="geometry">
            <mxPoint x="537.69" y="1060" as="targetPoint" />
            <Array as="points">
              <mxPoint x="639.69" y="1060" />
            </Array>
          </mxGeometry>
        </mxCell>
        <mxCell id="gPckJBPebu3lDU5of1CX-179" value="&lt;span style=&quot;color: rgb(0 , 0 , 0) ; font-family: &amp;#34;verdana&amp;#34;&quot;&gt;EP04-02_Virgil&lt;/span&gt;&lt;span style=&quot;font-family: &amp;#34;verdana&amp;#34;&quot;&gt;_choice_5&lt;/span&gt;" style="whiteSpace=wrap;html=1;align=center;verticalAlign=middle;treeFolding=1;treeMoving=1;fillColor=#f5f5f5;strokeColor=#666666;fontColor=#333333;" vertex="1" parent="gPckJBPebu3lDU5of1CX-13">
          <mxGeometry x="590" y="1200" width="100" height="60" as="geometry" />
        </mxCell>
        <mxCell id="gPckJBPebu3lDU5of1CX-181" style="edgeStyle=orthogonalEdgeStyle;rounded=0;orthogonalLoop=1;jettySize=auto;html=1;entryX=0.46;entryY=-0.24;entryDx=0;entryDy=0;entryPerimeter=0;" edge="1" source="gPckJBPebu3lDU5of1CX-179" target="gPckJBPebu3lDU5of1CX-22" parent="gPckJBPebu3lDU5of1CX-13">
          <mxGeometry relative="1" as="geometry">
            <mxPoint x="540" y="1300" as="targetPoint" />
          </mxGeometry>
        </mxCell>
        <mxCell id="gPckJBPebu3lDU5of1CX-182" style="edgeStyle=orthogonalEdgeStyle;rounded=0;orthogonalLoop=1;jettySize=auto;html=1;entryX=0.5;entryY=0;entryDx=0;entryDy=0;exitX=0.5;exitY=1;exitDx=0;exitDy=0;" edge="1" target="gPckJBPebu3lDU5of1CX-179" parent="gPckJBPebu3lDU5of1CX-13">
          <mxGeometry relative="1" as="geometry">
            <mxPoint x="-160" y="3300" as="targetPoint" />
            <mxPoint x="447.9749999999999" y="850" as="sourcePoint" />
            <Array as="points">
              <mxPoint x="448" y="900" />
              <mxPoint x="540" y="900" />
              <mxPoint x="540" y="1170" />
              <mxPoint x="640" y="1170" />
            </Array>
          </mxGeometry>
        </mxCell>
        <mxCell id="gPckJBPebu3lDU5of1CX-183" style="edgeStyle=orthogonalEdgeStyle;rounded=0;orthogonalLoop=1;jettySize=auto;html=1;entryX=0;entryY=0.5;entryDx=0;entryDy=0;exitX=0.5;exitY=1;exitDx=0;exitDy=0;" edge="1" target="gPckJBPebu3lDU5of1CX-172" parent="gPckJBPebu3lDU5of1CX-13">
          <mxGeometry relative="1" as="geometry">
            <mxPoint x="635" y="850" as="sourcePoint" />
            <mxPoint x="-190" y="3140" as="targetPoint" />
            <Array as="points">
              <mxPoint x="635" y="900" />
              <mxPoint x="540" y="900" />
              <mxPoint x="540" y="1010" />
            </Array>
          </mxGeometry>
        </mxCell>
        <mxCell id="gPckJBPebu3lDU5of1CX-184" value="&lt;span&gt;EP04-02&lt;/span&gt;" style="shape=note;whiteSpace=wrap;html=1;rounded=0;shadow=0;comic=0;labelBackgroundColor=none;strokeWidth=1;fontFamily=Verdana;fontSize=12;align=center;size=20;fillColor=#dae8fc;strokeColor=#6c8ebf;" vertex="1" parent="gPckJBPebu3lDU5of1CX-13">
          <mxGeometry x="690" y="870" width="77" height="42" as="geometry" />
        </mxCell>
        <mxCell id="gPckJBPebu3lDU5of1CX-185" value="EP04-02_&lt;span style=&quot;font-family: &amp;#34;verdana&amp;#34;&quot;&gt;Luo&lt;/span&gt;_First" style="rounded=1;whiteSpace=wrap;html=1;shadow=0;comic=0;labelBackgroundColor=none;strokeWidth=1;fontFamily=Verdana;fontSize=12;align=center;arcSize=50;" vertex="1" parent="gPckJBPebu3lDU5of1CX-13">
          <mxGeometry x="745" y="820" width="135.95" height="30" as="geometry" />
        </mxCell>
        <mxCell id="gPckJBPebu3lDU5of1CX-186" style="edgeStyle=orthogonalEdgeStyle;rounded=0;orthogonalLoop=1;jettySize=auto;html=1;" edge="1" parent="gPckJBPebu3lDU5of1CX-13" source="gPckJBPebu3lDU5of1CX-188" target="gPckJBPebu3lDU5of1CX-185">
          <mxGeometry relative="1" as="geometry" />
        </mxCell>
        <mxCell id="gPckJBPebu3lDU5of1CX-188" value="&lt;span style=&quot;font-size: 10.5pt ; color: #262626 ; letter-spacing: 0.55pt&quot;&gt;与罗互动&lt;/span&gt;" style="shape=parallelogram;perimeter=parallelogramPerimeter;whiteSpace=wrap;html=1;fixedSize=1;" vertex="1" parent="gPckJBPebu3lDU5of1CX-13">
          <mxGeometry x="845" y="750" width="120" height="30" as="geometry" />
        </mxCell>
        <mxCell id="gPckJBPebu3lDU5of1CX-189" value="EP04-02_&lt;span style=&quot;font-family: &amp;#34;verdana&amp;#34;&quot;&gt;Luo&lt;/span&gt;_Second" style="rounded=1;whiteSpace=wrap;html=1;shadow=0;comic=0;labelBackgroundColor=none;strokeWidth=1;fontFamily=Verdana;fontSize=12;align=center;arcSize=50;" vertex="1" parent="gPckJBPebu3lDU5of1CX-13">
          <mxGeometry x="925" y="820" width="150" height="30" as="geometry" />
        </mxCell>
        <mxCell id="gPckJBPebu3lDU5of1CX-187" style="edgeStyle=orthogonalEdgeStyle;rounded=0;orthogonalLoop=1;jettySize=auto;html=1;entryX=0.588;entryY=-0.067;entryDx=0;entryDy=0;entryPerimeter=0;" edge="1" parent="gPckJBPebu3lDU5of1CX-13" source="gPckJBPebu3lDU5of1CX-188" target="gPckJBPebu3lDU5of1CX-189">
          <mxGeometry relative="1" as="geometry" />
        </mxCell>
        <mxCell id="gPckJBPebu3lDU5of1CX-190" value="&lt;span style=&quot;font-size: 10.5pt ; color: #262626 ; letter-spacing: 0.55pt&quot;&gt;第一次对话&lt;/span&gt;" style="text;html=1;align=center;verticalAlign=middle;resizable=0;points=[];autosize=1;" vertex="1" parent="gPckJBPebu3lDU5of1CX-13">
          <mxGeometry x="730" y="780" width="90" height="20" as="geometry" />
        </mxCell>
        <mxCell id="gPckJBPebu3lDU5of1CX-191" value="&lt;span style=&quot;font-size: 10.5pt ; color: #262626 ; letter-spacing: 0.55pt&quot;&gt;第二次对话&lt;/span&gt;" style="text;html=1;align=center;verticalAlign=middle;resizable=0;points=[];autosize=1;" vertex="1" parent="gPckJBPebu3lDU5of1CX-13">
          <mxGeometry x="980" y="770" width="90" height="20" as="geometry" />
        </mxCell>
        <mxCell id="gPckJBPebu3lDU5of1CX-192" style="edgeStyle=none;rounded=0;html=1;labelBackgroundColor=none;startArrow=none;startFill=0;startSize=5;endArrow=oval;endFill=0;endSize=5;jettySize=auto;orthogonalLoop=1;strokeWidth=1;fontFamily=Verdana;fontSize=12;dashed=1;exitX=0.281;exitY=-0.038;exitDx=0;exitDy=0;exitPerimeter=0;entryX=0.893;entryY=1.08;entryDx=0;entryDy=0;entryPerimeter=0;" edge="1" parent="gPckJBPebu3lDU5of1CX-13">
          <mxGeometry relative="1" as="geometry">
            <mxPoint x="711.637" y="868.404" as="sourcePoint" />
            <mxPoint x="693.95" y="852.4000000000001" as="targetPoint" />
          </mxGeometry>
        </mxCell>
        <mxCell id="gPckJBPebu3lDU5of1CX-193" style="edgeStyle=none;rounded=0;html=1;labelBackgroundColor=none;startArrow=none;startFill=0;startSize=5;endArrow=oval;endFill=0;endSize=5;jettySize=auto;orthogonalLoop=1;strokeWidth=1;fontFamily=Verdana;fontSize=12;dashed=1;exitX=0;exitY=0;exitDx=57;exitDy=0;exitPerimeter=0;entryX=0.084;entryY=1.053;entryDx=0;entryDy=0;entryPerimeter=0;" edge="1" parent="gPckJBPebu3lDU5of1CX-13" target="gPckJBPebu3lDU5of1CX-185">
          <mxGeometry relative="1" as="geometry">
            <mxPoint x="747" y="870" as="sourcePoint" />
            <mxPoint x="3.9500000000000455" y="2982.4" as="targetPoint" />
          </mxGeometry>
        </mxCell>
        <mxCell id="gPckJBPebu3lDU5of1CX-194" style="edgeStyle=orthogonalEdgeStyle;rounded=0;orthogonalLoop=1;jettySize=auto;html=1;entryX=1;entryY=0.5;entryDx=0;entryDy=0;" edge="1" parent="gPckJBPebu3lDU5of1CX-13" target="gPckJBPebu3lDU5of1CX-200">
          <mxGeometry relative="1" as="geometry">
            <mxPoint x="818" y="850" as="sourcePoint" />
            <Array as="points">
              <mxPoint x="818" y="900" />
              <mxPoint x="910" y="900" />
              <mxPoint x="910" y="1120" />
            </Array>
          </mxGeometry>
        </mxCell>
        <mxCell id="gPckJBPebu3lDU5of1CX-195" style="edgeStyle=orthogonalEdgeStyle;rounded=0;orthogonalLoop=1;jettySize=auto;html=1;entryX=1;entryY=0.5;entryDx=0;entryDy=0;" edge="1" parent="gPckJBPebu3lDU5of1CX-13" target="gPckJBPebu3lDU5of1CX-197">
          <mxGeometry relative="1" as="geometry">
            <mxPoint x="1005" y="850" as="sourcePoint" />
            <Array as="points">
              <mxPoint x="1005" y="900" />
              <mxPoint x="910" y="900" />
              <mxPoint x="910" y="1010" />
            </Array>
          </mxGeometry>
        </mxCell>
        <mxCell id="gPckJBPebu3lDU5of1CX-196" style="edgeStyle=orthogonalEdgeStyle;rounded=0;orthogonalLoop=1;jettySize=auto;html=1;entryX=0;entryY=0.5;entryDx=0;entryDy=0;" edge="1" parent="gPckJBPebu3lDU5of1CX-13" target="gPckJBPebu3lDU5of1CX-199">
          <mxGeometry relative="1" as="geometry">
            <mxPoint x="1005" y="850" as="sourcePoint" />
            <Array as="points">
              <mxPoint x="1005" y="900" />
              <mxPoint x="910" y="900" />
              <mxPoint x="910" y="1120" />
            </Array>
          </mxGeometry>
        </mxCell>
        <mxCell id="gPckJBPebu3lDU5of1CX-197" value="&lt;span style=&quot;color: rgb(0 , 0 , 0) ; font-family: &amp;#34;verdana&amp;#34;&quot;&gt;EP04-02_&lt;/span&gt;&lt;span style=&quot;color: rgb(0 , 0 , 0) ; font-family: &amp;#34;verdana&amp;#34;&quot;&gt;Luo&lt;/span&gt;&lt;span style=&quot;font-family: &amp;#34;verdana&amp;#34;&quot;&gt;_choice_1&lt;/span&gt;" style="whiteSpace=wrap;html=1;align=center;verticalAlign=middle;treeFolding=1;treeMoving=1;fillColor=#f5f5f5;strokeColor=#666666;fontColor=#333333;" vertex="1" collapsed="1" parent="gPckJBPebu3lDU5of1CX-13">
          <mxGeometry x="770" y="980" width="100" height="60" as="geometry" />
        </mxCell>
        <mxCell id="gPckJBPebu3lDU5of1CX-198" value="&lt;span style=&quot;color: rgb(0 , 0 , 0) ; font-family: &amp;#34;verdana&amp;#34;&quot;&gt;EP04-02_&lt;/span&gt;&lt;span style=&quot;color: rgb(0 , 0 , 0) ; font-family: &amp;#34;verdana&amp;#34;&quot;&gt;Luo&lt;/span&gt;&lt;span style=&quot;font-family: &amp;#34;verdana&amp;#34;&quot;&gt;_choice_2&lt;/span&gt;" style="whiteSpace=wrap;html=1;align=center;verticalAlign=middle;treeFolding=1;treeMoving=1;fillColor=#f5f5f5;strokeColor=#666666;fontColor=#333333;" vertex="1" collapsed="1" parent="gPckJBPebu3lDU5of1CX-13">
          <mxGeometry x="957.6899999999998" y="980" width="100" height="60" as="geometry" />
        </mxCell>
        <mxCell id="gPckJBPebu3lDU5of1CX-199" value="&lt;span style=&quot;color: rgb(0 , 0 , 0) ; font-family: &amp;#34;verdana&amp;#34;&quot;&gt;EP04-02_&lt;/span&gt;&lt;span style=&quot;color: rgb(0 , 0 , 0) ; font-family: &amp;#34;verdana&amp;#34;&quot;&gt;Luo&lt;/span&gt;&lt;span style=&quot;font-family: &amp;#34;verdana&amp;#34;&quot;&gt;_choice_4&lt;/span&gt;" style="whiteSpace=wrap;html=1;align=center;verticalAlign=middle;treeFolding=1;treeMoving=1;fillColor=#f5f5f5;strokeColor=#666666;fontColor=#333333;" vertex="1" parent="gPckJBPebu3lDU5of1CX-13">
          <mxGeometry x="960" y="1090" width="100" height="60" as="geometry" />
        </mxCell>
        <mxCell id="gPckJBPebu3lDU5of1CX-200" value="&lt;span style=&quot;color: rgb(0 , 0 , 0) ; font-family: &amp;#34;verdana&amp;#34;&quot;&gt;EP04-02_&lt;/span&gt;&lt;span style=&quot;color: rgb(0 , 0 , 0) ; font-family: &amp;#34;verdana&amp;#34;&quot;&gt;Luo&lt;/span&gt;&lt;span style=&quot;font-family: &amp;#34;verdana&amp;#34;&quot;&gt;_choice_3&lt;/span&gt;" style="whiteSpace=wrap;html=1;align=center;verticalAlign=middle;treeFolding=1;treeMoving=1;fillColor=#f5f5f5;strokeColor=#666666;fontColor=#333333;" vertex="1" parent="gPckJBPebu3lDU5of1CX-13">
          <mxGeometry x="770" y="1090" width="100" height="60" as="geometry" />
        </mxCell>
        <mxCell id="gPckJBPebu3lDU5of1CX-201" style="edgeStyle=orthogonalEdgeStyle;rounded=0;orthogonalLoop=1;jettySize=auto;html=1;" edge="1" parent="gPckJBPebu3lDU5of1CX-13" source="gPckJBPebu3lDU5of1CX-197">
          <mxGeometry relative="1" as="geometry">
            <mxPoint x="907.69" y="960" as="targetPoint" />
            <Array as="points">
              <mxPoint x="819.69" y="960" />
            </Array>
          </mxGeometry>
        </mxCell>
        <mxCell id="gPckJBPebu3lDU5of1CX-202" style="edgeStyle=orthogonalEdgeStyle;rounded=0;orthogonalLoop=1;jettySize=auto;html=1;" edge="1" parent="gPckJBPebu3lDU5of1CX-13" source="gPckJBPebu3lDU5of1CX-198">
          <mxGeometry relative="1" as="geometry">
            <mxPoint x="907.69" y="960" as="targetPoint" />
            <Array as="points">
              <mxPoint x="1007.69" y="960" />
              <mxPoint x="947.69" y="960" />
            </Array>
          </mxGeometry>
        </mxCell>
        <mxCell id="gPckJBPebu3lDU5of1CX-203" style="edgeStyle=orthogonalEdgeStyle;rounded=0;orthogonalLoop=1;jettySize=auto;html=1;strokeColor=#000000;" edge="1" parent="gPckJBPebu3lDU5of1CX-13" source="gPckJBPebu3lDU5of1CX-200">
          <mxGeometry relative="1" as="geometry">
            <mxPoint x="907.69" y="1060" as="targetPoint" />
            <Array as="points">
              <mxPoint x="819.69" y="1060" />
              <mxPoint x="907.69" y="1060" />
            </Array>
          </mxGeometry>
        </mxCell>
        <mxCell id="gPckJBPebu3lDU5of1CX-204" style="edgeStyle=orthogonalEdgeStyle;rounded=0;orthogonalLoop=1;jettySize=auto;html=1;strokeColor=#000000;" edge="1" parent="gPckJBPebu3lDU5of1CX-13" source="gPckJBPebu3lDU5of1CX-199">
          <mxGeometry relative="1" as="geometry">
            <mxPoint x="907.69" y="1060" as="targetPoint" />
            <Array as="points">
              <mxPoint x="1009.69" y="1060" />
            </Array>
          </mxGeometry>
        </mxCell>
        <mxCell id="gPckJBPebu3lDU5of1CX-205" value="&lt;span style=&quot;color: rgb(0 , 0 , 0) ; font-family: &amp;#34;verdana&amp;#34;&quot;&gt;EP04-02_&lt;/span&gt;&lt;span style=&quot;color: rgb(0 , 0 , 0) ; font-family: &amp;#34;verdana&amp;#34;&quot;&gt;Luo&lt;/span&gt;&lt;span style=&quot;font-family: &amp;#34;verdana&amp;#34;&quot;&gt;_choice_5&lt;/span&gt;" style="whiteSpace=wrap;html=1;align=center;verticalAlign=middle;treeFolding=1;treeMoving=1;fillColor=#f5f5f5;strokeColor=#666666;fontColor=#333333;" vertex="1" parent="gPckJBPebu3lDU5of1CX-13">
          <mxGeometry x="960" y="1200" width="100" height="60" as="geometry" />
        </mxCell>
        <mxCell id="gPckJBPebu3lDU5of1CX-207" style="edgeStyle=orthogonalEdgeStyle;rounded=0;orthogonalLoop=1;jettySize=auto;html=1;entryX=0.868;entryY=0.16;entryDx=0;entryDy=0;entryPerimeter=0;" edge="1" parent="gPckJBPebu3lDU5of1CX-13" source="gPckJBPebu3lDU5of1CX-205" target="gPckJBPebu3lDU5of1CX-22">
          <mxGeometry relative="1" as="geometry">
            <mxPoint x="910" y="1300" as="targetPoint" />
          </mxGeometry>
        </mxCell>
        <mxCell id="gPckJBPebu3lDU5of1CX-208" style="edgeStyle=orthogonalEdgeStyle;rounded=0;orthogonalLoop=1;jettySize=auto;html=1;entryX=0.5;entryY=0;entryDx=0;entryDy=0;exitX=0.5;exitY=1;exitDx=0;exitDy=0;" edge="1" parent="gPckJBPebu3lDU5of1CX-13" target="gPckJBPebu3lDU5of1CX-205">
          <mxGeometry relative="1" as="geometry">
            <mxPoint x="-140" y="4360" as="targetPoint" />
            <mxPoint x="817.9749999999999" y="850" as="sourcePoint" />
            <Array as="points">
              <mxPoint x="818" y="900" />
              <mxPoint x="910" y="900" />
              <mxPoint x="910" y="1170" />
              <mxPoint x="1010" y="1170" />
            </Array>
          </mxGeometry>
        </mxCell>
        <mxCell id="gPckJBPebu3lDU5of1CX-209" style="edgeStyle=orthogonalEdgeStyle;rounded=0;orthogonalLoop=1;jettySize=auto;html=1;entryX=0;entryY=0.5;entryDx=0;entryDy=0;exitX=0.5;exitY=1;exitDx=0;exitDy=0;" edge="1" parent="gPckJBPebu3lDU5of1CX-13" target="gPckJBPebu3lDU5of1CX-198">
          <mxGeometry relative="1" as="geometry">
            <mxPoint x="1005" y="850" as="sourcePoint" />
            <mxPoint x="-170" y="4200" as="targetPoint" />
            <Array as="points">
              <mxPoint x="1005" y="900" />
              <mxPoint x="910" y="900" />
              <mxPoint x="910" y="1010" />
            </Array>
          </mxGeometry>
        </mxCell>
        <mxCell id="gPckJBPebu3lDU5of1CX-253" value="&lt;span&gt;“&lt;/span&gt;&lt;span&gt;首先，死者的名字叫做什么呢？&lt;/span&gt;&lt;span&gt;”&lt;br&gt;进入指证模式，答对进入下一段剧情，答错说一段答错文本，然后回来。&lt;/span&gt;" style="shape=callout;whiteSpace=wrap;html=1;perimeter=calloutPerimeter;position2=1;size=30;position=0.42;" vertex="1" parent="gPckJBPebu3lDU5of1CX-13">
          <mxGeometry x="1010" y="2270" width="220" height="110" as="geometry" />
        </mxCell>
        <mxCell id="gPckJBPebu3lDU5of1CX-95" style="edgeStyle=orthogonalEdgeStyle;rounded=0;orthogonalLoop=1;jettySize=auto;html=1;entryX=0.463;entryY=0.12;entryDx=0;entryDy=0;entryPerimeter=0;" edge="1" parent="gPckJBPebu3lDU5of1CX-1" source="gPckJBPebu3lDU5of1CX-87" target="gPckJBPebu3lDU5of1CX-14">
          <mxGeometry relative="1" as="geometry">
            <Array as="points">
              <mxPoint x="857" y="625" />
            </Array>
          </mxGeometry>
        </mxCell>
        <mxCell id="gPckJBPebu3lDU5of1CX-37" value="&lt;span style=&quot;font-family: &amp;#34;verdana&amp;#34; ; font-weight: 400&quot;&gt;EP01-03&lt;/span&gt;" style="swimlane;html=1;startSize=20;fillColor=#dae8fc;strokeColor=#6c8ebf;" vertex="1" parent="gPckJBPebu3lDU5of1CX-1">
          <mxGeometry x="1490" y="20" width="465" height="3690" as="geometry" />
        </mxCell>
        <mxCell id="gPckJBPebu3lDU5of1CX-38" style="rounded=0;html=1;labelBackgroundColor=none;startArrow=none;startFill=0;startSize=5;endArrow=classicThin;endFill=1;endSize=5;jettySize=auto;orthogonalLoop=1;strokeWidth=1;fontFamily=Verdana;fontSize=12" edge="1" parent="gPckJBPebu3lDU5of1CX-37">
          <mxGeometry relative="1" as="geometry">
            <mxPoint x="61.25" y="268" as="targetPoint" />
          </mxGeometry>
        </mxCell>
        <mxCell id="gPckJBPebu3lDU5of1CX-39" style="edgeStyle=none;rounded=0;html=1;labelBackgroundColor=none;startArrow=none;startFill=0;startSize=5;endArrow=classicThin;endFill=1;endSize=5;jettySize=auto;orthogonalLoop=1;strokeWidth=1;fontFamily=Verdana;fontSize=12" edge="1" parent="gPckJBPebu3lDU5of1CX-37">
          <mxGeometry relative="1" as="geometry">
            <mxPoint x="35" y="367.2222222222222" as="targetPoint" />
          </mxGeometry>
        </mxCell>
        <mxCell id="gPckJBPebu3lDU5of1CX-40" style="edgeStyle=none;rounded=0;html=1;labelBackgroundColor=none;startArrow=none;startFill=0;startSize=5;endArrow=classicThin;endFill=1;endSize=5;jettySize=auto;orthogonalLoop=1;strokeWidth=1;fontFamily=Verdana;fontSize=12" edge="1" parent="gPckJBPebu3lDU5of1CX-37">
          <mxGeometry relative="1" as="geometry">
            <mxPoint x="70.5645161290322" y="298" as="sourcePoint" />
          </mxGeometry>
        </mxCell>
        <mxCell id="gPckJBPebu3lDU5of1CX-41" style="edgeStyle=none;rounded=0;html=1;dashed=1;labelBackgroundColor=none;startArrow=none;startFill=0;startSize=5;endArrow=oval;endFill=0;endSize=5;jettySize=auto;orthogonalLoop=1;strokeWidth=1;fontFamily=Verdana;fontSize=12" edge="1" parent="gPckJBPebu3lDU5of1CX-37">
          <mxGeometry relative="1" as="geometry">
            <mxPoint x="160" y="257.8780487804878" as="sourcePoint" />
          </mxGeometry>
        </mxCell>
        <mxCell id="gPckJBPebu3lDU5of1CX-42" style="edgeStyle=none;rounded=0;html=1;dashed=1;labelBackgroundColor=none;startArrow=none;startFill=0;startSize=5;endArrow=oval;endFill=0;endSize=5;jettySize=auto;orthogonalLoop=1;strokeWidth=1;fontFamily=Verdana;fontSize=12" edge="1" parent="gPckJBPebu3lDU5of1CX-37">
          <mxGeometry relative="1" as="geometry">
            <mxPoint x="85" y="281.81355932203394" as="targetPoint" />
          </mxGeometry>
        </mxCell>
        <mxCell id="gPckJBPebu3lDU5of1CX-43" style="edgeStyle=none;rounded=0;html=1;dashed=1;labelBackgroundColor=none;startArrow=none;startFill=0;startSize=5;endArrow=oval;endFill=0;endSize=5;jettySize=auto;orthogonalLoop=1;strokeWidth=1;fontFamily=Verdana;fontSize=12" edge="1" parent="gPckJBPebu3lDU5of1CX-37">
          <mxGeometry relative="1" as="geometry">
            <mxPoint x="154.74358974358984" y="415" as="sourcePoint" />
          </mxGeometry>
        </mxCell>
        <mxCell id="gPckJBPebu3lDU5of1CX-44" style="edgeStyle=none;rounded=0;html=1;dashed=1;labelBackgroundColor=none;startArrow=none;startFill=0;startSize=5;endArrow=oval;endFill=0;endSize=5;jettySize=auto;orthogonalLoop=1;strokeWidth=1;fontFamily=Verdana;fontSize=12" edge="1" parent="gPckJBPebu3lDU5of1CX-37">
          <mxGeometry relative="1" as="geometry">
            <mxPoint x="35" y="389.53846153846155" as="targetPoint" />
          </mxGeometry>
        </mxCell>
        <mxCell id="gPckJBPebu3lDU5of1CX-45" style="edgeStyle=orthogonalEdgeStyle;rounded=0;orthogonalLoop=1;jettySize=auto;html=1;entryX=0.5;entryY=0;entryDx=0;entryDy=0;strokeColor=#FF3333;" edge="1" parent="gPckJBPebu3lDU5of1CX-37" source="gPckJBPebu3lDU5of1CX-49" target="gPckJBPebu3lDU5of1CX-60">
          <mxGeometry relative="1" as="geometry" />
        </mxCell>
        <mxCell id="gPckJBPebu3lDU5of1CX-48" style="edgeStyle=orthogonalEdgeStyle;rounded=0;orthogonalLoop=1;jettySize=auto;html=1;entryX=0.5;entryY=0;entryDx=0;entryDy=0;strokeColor=#000000;" edge="1" parent="gPckJBPebu3lDU5of1CX-37" source="gPckJBPebu3lDU5of1CX-49" target="gPckJBPebu3lDU5of1CX-58">
          <mxGeometry relative="1" as="geometry">
            <Array as="points" />
          </mxGeometry>
        </mxCell>
        <mxCell id="gPckJBPebu3lDU5of1CX-255" style="edgeStyle=orthogonalEdgeStyle;rounded=0;orthogonalLoop=1;jettySize=auto;html=1;" edge="1" parent="gPckJBPebu3lDU5of1CX-37" source="gPckJBPebu3lDU5of1CX-49" target="gPckJBPebu3lDU5of1CX-55">
          <mxGeometry relative="1" as="geometry" />
        </mxCell>
        <mxCell id="gPckJBPebu3lDU5of1CX-256" style="edgeStyle=orthogonalEdgeStyle;rounded=0;orthogonalLoop=1;jettySize=auto;html=1;" edge="1" parent="gPckJBPebu3lDU5of1CX-37" source="gPckJBPebu3lDU5of1CX-49" target="gPckJBPebu3lDU5of1CX-56">
          <mxGeometry relative="1" as="geometry" />
        </mxCell>
        <mxCell id="gPckJBPebu3lDU5of1CX-49" value="EP04-04_0" style="rounded=1;whiteSpace=wrap;html=1;shadow=0;comic=0;labelBackgroundColor=none;strokeWidth=1;fontFamily=Verdana;fontSize=12;align=center;arcSize=50;" vertex="1" parent="gPckJBPebu3lDU5of1CX-37">
          <mxGeometry x="172.5" y="2220" width="100" height="30" as="geometry" />
        </mxCell>
        <mxCell id="gPckJBPebu3lDU5of1CX-50" style="edgeStyle=none;rounded=0;orthogonalLoop=1;jettySize=auto;html=1;entryX=1;entryY=0.75;entryDx=0;entryDy=0;dashed=1;startArrow=oval;startFill=0;exitX=0;exitY=0;exitDx=10;exitDy=10;exitPerimeter=0;" edge="1" parent="gPckJBPebu3lDU5of1CX-37" source="gPckJBPebu3lDU5of1CX-51" target="gPckJBPebu3lDU5of1CX-49">
          <mxGeometry relative="1" as="geometry">
            <mxPoint x="308.7942105263159" y="2280" as="sourcePoint" />
          </mxGeometry>
        </mxCell>
        <mxCell id="gPckJBPebu3lDU5of1CX-51" value="医生房间" style="shape=card;whiteSpace=wrap;html=1;size=20;fillColor=#d5e8d4;strokeColor=#82b366;" vertex="1" parent="gPckJBPebu3lDU5of1CX-37">
          <mxGeometry x="300.19" y="2290" width="70" height="40" as="geometry" />
        </mxCell>
        <mxCell id="gPckJBPebu3lDU5of1CX-52" style="edgeStyle=none;rounded=0;orthogonalLoop=1;jettySize=auto;html=1;entryX=0;entryY=0.75;entryDx=0;entryDy=0;dashed=1;startArrow=oval;startFill=0;exitX=0;exitY=0;exitDx=65;exitDy=0;exitPerimeter=0;" edge="1" parent="gPckJBPebu3lDU5of1CX-37" source="gPckJBPebu3lDU5of1CX-54" target="gPckJBPebu3lDU5of1CX-49">
          <mxGeometry relative="1" as="geometry">
            <mxPoint x="149.19354838709694" y="2218" as="sourcePoint" />
          </mxGeometry>
        </mxCell>
        <mxCell id="gPckJBPebu3lDU5of1CX-54" value="EP04-04" style="shape=note;whiteSpace=wrap;html=1;rounded=0;shadow=0;comic=0;labelBackgroundColor=none;strokeWidth=1;fontFamily=Verdana;fontSize=12;align=center;size=20;fillColor=#dae8fc;strokeColor=#6c8ebf;" vertex="1" parent="gPckJBPebu3lDU5of1CX-37">
          <mxGeometry x="92.5" y="2288" width="85" height="42" as="geometry" />
        </mxCell>
        <mxCell id="gPckJBPebu3lDU5of1CX-55" value="&lt;span style=&quot;color: rgb(0 , 0 , 0) ; font-family: &amp;#34;verdana&amp;#34;&quot;&gt;EP04-04&lt;/span&gt;&lt;span style=&quot;font-family: &amp;#34;verdana&amp;#34;&quot;&gt;_choice_1&lt;/span&gt;" style="whiteSpace=wrap;html=1;align=center;verticalAlign=middle;treeFolding=1;treeMoving=1;fillColor=#f5f5f5;strokeColor=#666666;fontColor=#333333;" vertex="1" collapsed="1" parent="gPckJBPebu3lDU5of1CX-37">
          <mxGeometry x="19.999999999999943" y="2370" width="100" height="60" as="geometry" />
        </mxCell>
        <mxCell id="gPckJBPebu3lDU5of1CX-56" value="&lt;span style=&quot;color: rgb(0 , 0 , 0) ; font-family: &amp;#34;verdana&amp;#34;&quot;&gt;EP04-04&lt;/span&gt;&lt;span style=&quot;font-family: &amp;#34;verdana&amp;#34;&quot;&gt;_choice_2&lt;/span&gt;" style="whiteSpace=wrap;html=1;align=center;verticalAlign=middle;treeFolding=1;treeMoving=1;fillColor=#f5f5f5;strokeColor=#666666;fontColor=#333333;" vertex="1" collapsed="1" parent="gPckJBPebu3lDU5of1CX-37">
          <mxGeometry x="349.99999999999994" y="2370" width="100" height="60" as="geometry" />
        </mxCell>
        <mxCell id="gPckJBPebu3lDU5of1CX-259" style="edgeStyle=orthogonalEdgeStyle;rounded=0;orthogonalLoop=1;jettySize=auto;html=1;entryX=0.5;entryY=0;entryDx=0;entryDy=0;" edge="1" parent="gPckJBPebu3lDU5of1CX-37" source="gPckJBPebu3lDU5of1CX-60" target="gPckJBPebu3lDU5of1CX-258">
          <mxGeometry relative="1" as="geometry" />
        </mxCell>
        <mxCell id="gPckJBPebu3lDU5of1CX-60" value="EP04-04_1" style="rounded=1;whiteSpace=wrap;html=1;shadow=0;comic=0;labelBackgroundColor=none;strokeWidth=1;fontFamily=Verdana;fontSize=12;align=center;arcSize=50;" vertex="1" parent="gPckJBPebu3lDU5of1CX-37">
          <mxGeometry x="172.49999999999994" y="2490" width="100" height="30" as="geometry" />
        </mxCell>
        <mxCell id="gPckJBPebu3lDU5of1CX-112" value="所有可互动项互动结束后" style="shape=callout;whiteSpace=wrap;html=1;perimeter=calloutPerimeter;position2=0;size=30;position=0.42;" vertex="1" parent="gPckJBPebu3lDU5of1CX-37">
          <mxGeometry x="270" y="1400" width="120" height="80" as="geometry" />
        </mxCell>
        <mxCell id="gPckJBPebu3lDU5of1CX-211" value="EP04-03_0" style="rounded=1;whiteSpace=wrap;html=1;shadow=0;comic=0;labelBackgroundColor=none;strokeWidth=1;fontFamily=Verdana;fontSize=12;align=center;arcSize=50;" vertex="1" parent="gPckJBPebu3lDU5of1CX-37">
          <mxGeometry x="175" y="1480" width="100" height="30" as="geometry" />
        </mxCell>
        <mxCell id="gPckJBPebu3lDU5of1CX-212" style="edgeStyle=none;rounded=0;orthogonalLoop=1;jettySize=auto;html=1;entryX=1;entryY=0.75;entryDx=0;entryDy=0;dashed=1;startArrow=oval;startFill=0;exitX=0;exitY=0;exitDx=10;exitDy=10;exitPerimeter=0;" edge="1" parent="gPckJBPebu3lDU5of1CX-37" source="gPckJBPebu3lDU5of1CX-213" target="gPckJBPebu3lDU5of1CX-211">
          <mxGeometry relative="1" as="geometry">
            <mxPoint x="-1206.395789473684" y="2600" as="sourcePoint" />
          </mxGeometry>
        </mxCell>
        <mxCell id="gPckJBPebu3lDU5of1CX-213" value="医生房间" style="shape=card;whiteSpace=wrap;html=1;size=20;fillColor=#d5e8d4;strokeColor=#82b366;" vertex="1" parent="gPckJBPebu3lDU5of1CX-37">
          <mxGeometry x="300" y="1550" width="70" height="40" as="geometry" />
        </mxCell>
        <mxCell id="gPckJBPebu3lDU5of1CX-214" style="edgeStyle=none;rounded=0;orthogonalLoop=1;jettySize=auto;html=1;entryX=0;entryY=0.75;entryDx=0;entryDy=0;dashed=1;startArrow=oval;startFill=0;exitX=0;exitY=0;exitDx=65;exitDy=0;exitPerimeter=0;" edge="1" parent="gPckJBPebu3lDU5of1CX-37" source="gPckJBPebu3lDU5of1CX-215" target="gPckJBPebu3lDU5of1CX-211">
          <mxGeometry relative="1" as="geometry">
            <mxPoint x="-1365.996451612903" y="2538" as="sourcePoint" />
          </mxGeometry>
        </mxCell>
        <mxCell id="gPckJBPebu3lDU5of1CX-215" value="EP04-03" style="shape=note;whiteSpace=wrap;html=1;rounded=0;shadow=0;comic=0;labelBackgroundColor=none;strokeWidth=1;fontFamily=Verdana;fontSize=12;align=center;size=20;fillColor=#dae8fc;strokeColor=#6c8ebf;" vertex="1" parent="gPckJBPebu3lDU5of1CX-37">
          <mxGeometry x="92.30999999999995" y="1548" width="85" height="42" as="geometry" />
        </mxCell>
        <mxCell id="gPckJBPebu3lDU5of1CX-217" value="&lt;span style=&quot;color: rgb(38 , 38 , 38) ; font-size: 12.6667px ; letter-spacing: 0.733333px&quot;&gt;再次调查&lt;br&gt;教授的尸体&lt;/span&gt;" style="rhombus;whiteSpace=wrap;html=1;align=center;fillColor=#f8cecc;strokeColor=#b85450;" vertex="1" parent="gPckJBPebu3lDU5of1CX-37">
          <mxGeometry x="185" y="1580" width="80" height="80" as="geometry" />
        </mxCell>
        <mxCell id="gPckJBPebu3lDU5of1CX-223" style="edgeStyle=orthogonalEdgeStyle;rounded=0;orthogonalLoop=1;jettySize=auto;html=1;entryX=0.5;entryY=0;entryDx=0;entryDy=0;" edge="1" parent="gPckJBPebu3lDU5of1CX-37" source="gPckJBPebu3lDU5of1CX-211" target="gPckJBPebu3lDU5of1CX-217">
          <mxGeometry relative="1" as="geometry" />
        </mxCell>
        <mxCell id="gPckJBPebu3lDU5of1CX-218" value="EP04-03_1" style="rounded=1;whiteSpace=wrap;html=1;shadow=0;comic=0;labelBackgroundColor=none;strokeWidth=1;fontFamily=Verdana;fontSize=12;align=center;arcSize=50;" vertex="1" parent="gPckJBPebu3lDU5of1CX-37">
          <mxGeometry x="175" y="1730" width="100" height="30" as="geometry" />
        </mxCell>
        <mxCell id="gPckJBPebu3lDU5of1CX-224" style="edgeStyle=orthogonalEdgeStyle;rounded=0;orthogonalLoop=1;jettySize=auto;html=1;" edge="1" parent="gPckJBPebu3lDU5of1CX-37" source="gPckJBPebu3lDU5of1CX-217" target="gPckJBPebu3lDU5of1CX-218">
          <mxGeometry relative="1" as="geometry" />
        </mxCell>
        <mxCell id="gPckJBPebu3lDU5of1CX-219" style="edgeStyle=none;rounded=0;orthogonalLoop=1;jettySize=auto;html=1;entryX=1;entryY=0.75;entryDx=0;entryDy=0;dashed=1;startArrow=oval;startFill=0;exitX=0;exitY=0;exitDx=10;exitDy=10;exitPerimeter=0;" edge="1" parent="gPckJBPebu3lDU5of1CX-37" source="gPckJBPebu3lDU5of1CX-220" target="gPckJBPebu3lDU5of1CX-218">
          <mxGeometry relative="1" as="geometry">
            <mxPoint x="-1586.395789473684" y="3910" as="sourcePoint" />
          </mxGeometry>
        </mxCell>
        <mxCell id="gPckJBPebu3lDU5of1CX-220" value="医生房间" style="shape=card;whiteSpace=wrap;html=1;size=20;fillColor=#d5e8d4;strokeColor=#82b366;" vertex="1" parent="gPckJBPebu3lDU5of1CX-37">
          <mxGeometry x="300" y="1800" width="70" height="40" as="geometry" />
        </mxCell>
        <mxCell id="gPckJBPebu3lDU5of1CX-221" style="edgeStyle=none;rounded=0;orthogonalLoop=1;jettySize=auto;html=1;entryX=0;entryY=0.75;entryDx=0;entryDy=0;dashed=1;startArrow=oval;startFill=0;exitX=0;exitY=0;exitDx=65;exitDy=0;exitPerimeter=0;" edge="1" parent="gPckJBPebu3lDU5of1CX-37" source="gPckJBPebu3lDU5of1CX-222" target="gPckJBPebu3lDU5of1CX-218">
          <mxGeometry relative="1" as="geometry">
            <mxPoint x="-1745.996451612903" y="3848" as="sourcePoint" />
          </mxGeometry>
        </mxCell>
        <mxCell id="gPckJBPebu3lDU5of1CX-222" value="EP04-03" style="shape=note;whiteSpace=wrap;html=1;rounded=0;shadow=0;comic=0;labelBackgroundColor=none;strokeWidth=1;fontFamily=Verdana;fontSize=12;align=center;size=20;fillColor=#dae8fc;strokeColor=#6c8ebf;" vertex="1" parent="gPckJBPebu3lDU5of1CX-37">
          <mxGeometry x="92.30999999999995" y="1798" width="85" height="42" as="geometry" />
        </mxCell>
        <mxCell id="gPckJBPebu3lDU5of1CX-225" value="&lt;span style=&quot;color: rgb(0 , 0 , 0) ; font-family: &amp;#34;verdana&amp;#34;&quot;&gt;EP04-03&lt;/span&gt;&lt;span style=&quot;font-family: &amp;#34;verdana&amp;#34;&quot;&gt;_choice_1&lt;/span&gt;" style="whiteSpace=wrap;html=1;align=center;verticalAlign=middle;treeFolding=1;treeMoving=1;fillColor=#f5f5f5;strokeColor=#666666;fontColor=#333333;" vertex="1" collapsed="1" parent="gPckJBPebu3lDU5of1CX-37">
          <mxGeometry x="30" y="1900" width="100" height="60" as="geometry" />
        </mxCell>
        <mxCell id="gPckJBPebu3lDU5of1CX-236" style="edgeStyle=orthogonalEdgeStyle;rounded=0;orthogonalLoop=1;jettySize=auto;html=1;entryX=0.5;entryY=0;entryDx=0;entryDy=0;" edge="1" parent="gPckJBPebu3lDU5of1CX-37" source="gPckJBPebu3lDU5of1CX-218" target="gPckJBPebu3lDU5of1CX-225">
          <mxGeometry relative="1" as="geometry">
            <Array as="points">
              <mxPoint x="225" y="1870" />
              <mxPoint x="80" y="1870" />
            </Array>
          </mxGeometry>
        </mxCell>
        <mxCell id="gPckJBPebu3lDU5of1CX-226" value="&lt;span style=&quot;color: rgb(0 , 0 , 0) ; font-family: &amp;#34;verdana&amp;#34;&quot;&gt;EP04-03&lt;/span&gt;&lt;span style=&quot;font-family: &amp;#34;verdana&amp;#34;&quot;&gt;_choice_2&lt;/span&gt;" style="whiteSpace=wrap;html=1;align=center;verticalAlign=middle;treeFolding=1;treeMoving=1;fillColor=#f5f5f5;strokeColor=#666666;fontColor=#333333;" vertex="1" collapsed="1" parent="gPckJBPebu3lDU5of1CX-37">
          <mxGeometry x="318.5" y="1900" width="100" height="60" as="geometry" />
        </mxCell>
        <mxCell id="gPckJBPebu3lDU5of1CX-244" style="edgeStyle=orthogonalEdgeStyle;rounded=0;orthogonalLoop=1;jettySize=auto;html=1;" edge="1" parent="gPckJBPebu3lDU5of1CX-37" source="gPckJBPebu3lDU5of1CX-218" target="gPckJBPebu3lDU5of1CX-226">
          <mxGeometry relative="1" as="geometry">
            <Array as="points">
              <mxPoint x="225" y="1870" />
              <mxPoint x="369" y="1870" />
            </Array>
          </mxGeometry>
        </mxCell>
        <mxCell id="gPckJBPebu3lDU5of1CX-247" style="edgeStyle=orthogonalEdgeStyle;rounded=0;orthogonalLoop=1;jettySize=auto;html=1;" edge="1" parent="gPckJBPebu3lDU5of1CX-37" source="gPckJBPebu3lDU5of1CX-230">
          <mxGeometry relative="1" as="geometry">
            <mxPoint x="225" y="2219" as="targetPoint" />
            <Array as="points">
              <mxPoint x="225" y="2219" />
            </Array>
          </mxGeometry>
        </mxCell>
        <mxCell id="gPckJBPebu3lDU5of1CX-230" value="EP04-03_2" style="rounded=1;whiteSpace=wrap;html=1;shadow=0;comic=0;labelBackgroundColor=none;strokeWidth=1;fontFamily=Verdana;fontSize=12;align=center;arcSize=50;" vertex="1" parent="gPckJBPebu3lDU5of1CX-37">
          <mxGeometry x="175" y="2040" width="100" height="30" as="geometry" />
        </mxCell>
        <mxCell id="gPckJBPebu3lDU5of1CX-242" style="edgeStyle=orthogonalEdgeStyle;rounded=0;orthogonalLoop=1;jettySize=auto;html=1;entryX=0.5;entryY=0;entryDx=0;entryDy=0;" edge="1" parent="gPckJBPebu3lDU5of1CX-37" source="gPckJBPebu3lDU5of1CX-225" target="gPckJBPebu3lDU5of1CX-230">
          <mxGeometry relative="1" as="geometry">
            <Array as="points">
              <mxPoint x="80" y="1990" />
              <mxPoint x="225" y="1990" />
            </Array>
          </mxGeometry>
        </mxCell>
        <mxCell id="gPckJBPebu3lDU5of1CX-243" style="edgeStyle=orthogonalEdgeStyle;rounded=0;orthogonalLoop=1;jettySize=auto;html=1;entryX=0.5;entryY=0;entryDx=0;entryDy=0;" edge="1" parent="gPckJBPebu3lDU5of1CX-37" source="gPckJBPebu3lDU5of1CX-226" target="gPckJBPebu3lDU5of1CX-230">
          <mxGeometry relative="1" as="geometry">
            <Array as="points">
              <mxPoint x="369" y="1990" />
              <mxPoint x="225" y="1990" />
            </Array>
          </mxGeometry>
        </mxCell>
        <mxCell id="gPckJBPebu3lDU5of1CX-231" style="edgeStyle=none;rounded=0;orthogonalLoop=1;jettySize=auto;html=1;entryX=1;entryY=0.75;entryDx=0;entryDy=0;dashed=1;startArrow=oval;startFill=0;exitX=0;exitY=0;exitDx=10;exitDy=10;exitPerimeter=0;" edge="1" parent="gPckJBPebu3lDU5of1CX-37" source="gPckJBPebu3lDU5of1CX-232">
          <mxGeometry relative="1" as="geometry">
            <mxPoint x="-1806.395789473684" y="4227.5" as="sourcePoint" />
            <mxPoint x="272.30999999999995" y="2070" as="targetPoint" />
          </mxGeometry>
        </mxCell>
        <mxCell id="gPckJBPebu3lDU5of1CX-232" value="医生房间" style="shape=card;whiteSpace=wrap;html=1;size=20;fillColor=#d5e8d4;strokeColor=#82b366;" vertex="1" parent="gPckJBPebu3lDU5of1CX-37">
          <mxGeometry x="300" y="2117.5" width="70" height="40" as="geometry" />
        </mxCell>
        <mxCell id="gPckJBPebu3lDU5of1CX-233" style="edgeStyle=none;rounded=0;orthogonalLoop=1;jettySize=auto;html=1;entryX=0;entryY=0.75;entryDx=0;entryDy=0;dashed=1;startArrow=oval;startFill=0;exitX=0;exitY=0;exitDx=65;exitDy=0;exitPerimeter=0;" edge="1" parent="gPckJBPebu3lDU5of1CX-37" source="gPckJBPebu3lDU5of1CX-234">
          <mxGeometry relative="1" as="geometry">
            <mxPoint x="-1960.996451612903" y="4165.5" as="sourcePoint" />
            <mxPoint x="177.30999999999995" y="2070" as="targetPoint" />
          </mxGeometry>
        </mxCell>
        <mxCell id="gPckJBPebu3lDU5of1CX-234" value="EP04-03" style="shape=note;whiteSpace=wrap;html=1;rounded=0;shadow=0;comic=0;labelBackgroundColor=none;strokeWidth=1;fontFamily=Verdana;fontSize=12;align=center;size=20;fillColor=#dae8fc;strokeColor=#6c8ebf;" vertex="1" parent="gPckJBPebu3lDU5of1CX-37">
          <mxGeometry x="97.30999999999995" y="2115.5" width="85" height="42" as="geometry" />
        </mxCell>
        <mxCell id="gPckJBPebu3lDU5of1CX-241" style="edgeStyle=orthogonalEdgeStyle;rounded=0;orthogonalLoop=1;jettySize=auto;html=1;entryX=0.5;entryY=0;entryDx=0;entryDy=0;" edge="1" parent="gPckJBPebu3lDU5of1CX-37" source="gPckJBPebu3lDU5of1CX-228" target="gPckJBPebu3lDU5of1CX-230">
          <mxGeometry relative="1" as="geometry" />
        </mxCell>
        <mxCell id="gPckJBPebu3lDU5of1CX-228" value="&lt;span style=&quot;color: rgb(0 , 0 , 0) ; font-family: &amp;#34;verdana&amp;#34;&quot;&gt;EP04-03&lt;/span&gt;&lt;span style=&quot;font-family: &amp;#34;verdana&amp;#34;&quot;&gt;_choice_3&lt;/span&gt;" style="whiteSpace=wrap;html=1;align=center;verticalAlign=middle;treeFolding=1;treeMoving=1;fillColor=#f5f5f5;strokeColor=#666666;fontColor=#333333;" vertex="1" parent="gPckJBPebu3lDU5of1CX-37">
          <mxGeometry x="175" y="1900" width="100" height="60" as="geometry" />
        </mxCell>
        <mxCell id="gPckJBPebu3lDU5of1CX-240" style="edgeStyle=orthogonalEdgeStyle;rounded=0;orthogonalLoop=1;jettySize=auto;html=1;entryX=0.5;entryY=0;entryDx=0;entryDy=0;" edge="1" parent="gPckJBPebu3lDU5of1CX-37" source="gPckJBPebu3lDU5of1CX-218" target="gPckJBPebu3lDU5of1CX-228">
          <mxGeometry relative="1" as="geometry">
            <mxPoint x="605" y="700" as="sourcePoint" />
            <mxPoint x="605" y="1050" as="targetPoint" />
          </mxGeometry>
        </mxCell>
        <mxCell id="gPckJBPebu3lDU5of1CX-245" value="&lt;p style=&quot;margin: 0cm ; line-height: 18.0pt&quot;&gt;&lt;span style=&quot;font-size: 9.5pt ; color: #262626 ; letter-spacing: 0.55pt&quot;&gt;选项，选择哪一个都不影响剧情进展&lt;/span&gt;&lt;span lang=&quot;EN-US&quot; style=&quot;font-size: 10.5pt ; color: #262626 ; letter-spacing: 0.55pt&quot;&gt;&lt;/span&gt;&lt;/p&gt;" style="text;html=1;align=center;verticalAlign=middle;resizable=0;points=[];autosize=1;" vertex="1" parent="gPckJBPebu3lDU5of1CX-37">
          <mxGeometry x="235" y="1995" width="230" height="30" as="geometry" />
        </mxCell>
        <mxCell id="gPckJBPebu3lDU5of1CX-251" style="edgeStyle=orthogonalEdgeStyle;rounded=0;orthogonalLoop=1;jettySize=auto;html=1;entryX=0.931;entryY=0.067;entryDx=0;entryDy=0;entryPerimeter=0;" edge="1" parent="gPckJBPebu3lDU5of1CX-37" source="gPckJBPebu3lDU5of1CX-250" target="gPckJBPebu3lDU5of1CX-49">
          <mxGeometry relative="1" as="geometry" />
        </mxCell>
        <mxCell id="gPckJBPebu3lDU5of1CX-250" value="&lt;span style=&quot;color: rgb(38 , 38 , 38) ; font-size: 12.6667px ; letter-spacing: 0.733333px&quot;&gt;总结质问&lt;/span&gt;" style="shape=parallelogram;perimeter=parallelogramPerimeter;whiteSpace=wrap;html=1;fixedSize=1;" vertex="1" parent="gPckJBPebu3lDU5of1CX-37">
          <mxGeometry x="300" y="2180" width="120" height="40" as="geometry" />
        </mxCell>
        <mxCell id="gPckJBPebu3lDU5of1CX-58" value="&lt;span style=&quot;color: rgb(0 , 0 , 0) ; font-family: &amp;#34;verdana&amp;#34;&quot;&gt;EP04-04&lt;/span&gt;&lt;span style=&quot;font-family: &amp;#34;verdana&amp;#34;&quot;&gt;_choice_3&lt;/span&gt;" style="whiteSpace=wrap;html=1;align=center;verticalAlign=middle;treeFolding=1;treeMoving=1;fillColor=#f5f5f5;strokeColor=#666666;fontColor=#333333;" vertex="1" parent="gPckJBPebu3lDU5of1CX-37">
          <mxGeometry x="172.49999999999994" y="2370" width="100" height="60" as="geometry" />
        </mxCell>
        <mxCell id="gPckJBPebu3lDU5of1CX-263" style="edgeStyle=orthogonalEdgeStyle;rounded=0;orthogonalLoop=1;jettySize=auto;html=1;entryX=0.5;entryY=0;entryDx=0;entryDy=0;" edge="1" parent="gPckJBPebu3lDU5of1CX-37" source="gPckJBPebu3lDU5of1CX-258" target="gPckJBPebu3lDU5of1CX-262">
          <mxGeometry relative="1" as="geometry" />
        </mxCell>
        <mxCell id="gPckJBPebu3lDU5of1CX-258" value="&lt;span style=&quot;font-size: 14px&quot;&gt;医生的死亡时间&lt;/span&gt;" style="shape=hexagon;perimeter=hexagonPerimeter2;whiteSpace=wrap;html=1;fixedSize=1;gradientColor=#97d077;fillColor=#d5e8d4;strokeColor=#82b366;" vertex="1" parent="gPckJBPebu3lDU5of1CX-37">
          <mxGeometry x="162.5" y="2610" width="120" height="30" as="geometry" />
        </mxCell>
        <mxCell id="gPckJBPebu3lDU5of1CX-265" style="edgeStyle=orthogonalEdgeStyle;rounded=0;orthogonalLoop=1;jettySize=auto;html=1;entryX=0.5;entryY=0;entryDx=0;entryDy=0;" edge="1" parent="gPckJBPebu3lDU5of1CX-37" source="gPckJBPebu3lDU5of1CX-261" target="gPckJBPebu3lDU5of1CX-264">
          <mxGeometry relative="1" as="geometry" />
        </mxCell>
        <mxCell id="gPckJBPebu3lDU5of1CX-261" value="&lt;span style=&quot;font-size: 10.5pt&quot;&gt;错误证物&lt;/span&gt;" style="shape=hexagon;perimeter=hexagonPerimeter2;whiteSpace=wrap;html=1;fixedSize=1;gradientColor=#97d077;fillColor=#d5e8d4;strokeColor=#82b366;" vertex="1" parent="gPckJBPebu3lDU5of1CX-37">
          <mxGeometry x="20" y="2570" width="120" height="30" as="geometry" />
        </mxCell>
        <mxCell id="gPckJBPebu3lDU5of1CX-267" style="edgeStyle=orthogonalEdgeStyle;rounded=0;orthogonalLoop=1;jettySize=auto;html=1;entryX=0.5;entryY=0;entryDx=0;entryDy=0;" edge="1" parent="gPckJBPebu3lDU5of1CX-37" source="gPckJBPebu3lDU5of1CX-262" target="gPckJBPebu3lDU5of1CX-266">
          <mxGeometry relative="1" as="geometry" />
        </mxCell>
        <mxCell id="gPckJBPebu3lDU5of1CX-270" style="edgeStyle=orthogonalEdgeStyle;rounded=0;orthogonalLoop=1;jettySize=auto;html=1;entryX=0.5;entryY=0;entryDx=0;entryDy=0;" edge="1" parent="gPckJBPebu3lDU5of1CX-37" source="gPckJBPebu3lDU5of1CX-262" target="gPckJBPebu3lDU5of1CX-268">
          <mxGeometry relative="1" as="geometry" />
        </mxCell>
        <mxCell id="gPckJBPebu3lDU5of1CX-262" value="EP04-04_2" style="rounded=1;whiteSpace=wrap;html=1;shadow=0;comic=0;labelBackgroundColor=none;strokeWidth=1;fontFamily=Verdana;fontSize=12;align=center;arcSize=50;" vertex="1" parent="gPckJBPebu3lDU5of1CX-37">
          <mxGeometry x="172.5" y="2720" width="100" height="30" as="geometry" />
        </mxCell>
        <mxCell id="gPckJBPebu3lDU5of1CX-264" value="EP04-04_1_Fail" style="rounded=1;whiteSpace=wrap;html=1;shadow=0;comic=0;labelBackgroundColor=none;strokeWidth=1;fontFamily=Verdana;fontSize=12;align=center;arcSize=50;" vertex="1" parent="gPckJBPebu3lDU5of1CX-37">
          <mxGeometry x="30" y="2650" width="100" height="30" as="geometry" />
        </mxCell>
        <mxCell id="gPckJBPebu3lDU5of1CX-279" style="edgeStyle=orthogonalEdgeStyle;rounded=0;orthogonalLoop=1;jettySize=auto;html=1;entryX=0.5;entryY=0;entryDx=0;entryDy=0;" edge="1" parent="gPckJBPebu3lDU5of1CX-37" source="gPckJBPebu3lDU5of1CX-266" target="gPckJBPebu3lDU5of1CX-274">
          <mxGeometry relative="1" as="geometry" />
        </mxCell>
        <mxCell id="gPckJBPebu3lDU5of1CX-266" value="&lt;span style=&quot;font-size: 10.5pt&quot;&gt;匕首&lt;/span&gt;" style="shape=hexagon;perimeter=hexagonPerimeter2;whiteSpace=wrap;html=1;fixedSize=1;gradientColor=#97d077;fillColor=#d5e8d4;strokeColor=#82b366;" vertex="1" parent="gPckJBPebu3lDU5of1CX-37">
          <mxGeometry x="162.5" y="2840" width="120" height="30" as="geometry" />
        </mxCell>
        <mxCell id="gPckJBPebu3lDU5of1CX-271" style="edgeStyle=orthogonalEdgeStyle;rounded=0;orthogonalLoop=1;jettySize=auto;html=1;entryX=0.5;entryY=0;entryDx=0;entryDy=0;" edge="1" parent="gPckJBPebu3lDU5of1CX-37" source="gPckJBPebu3lDU5of1CX-268" target="gPckJBPebu3lDU5of1CX-269">
          <mxGeometry relative="1" as="geometry" />
        </mxCell>
        <mxCell id="gPckJBPebu3lDU5of1CX-268" value="&lt;span style=&quot;font-size: 10.5pt&quot;&gt;错误证物&lt;/span&gt;" style="shape=hexagon;perimeter=hexagonPerimeter2;whiteSpace=wrap;html=1;fixedSize=1;gradientColor=#97d077;fillColor=#d5e8d4;strokeColor=#82b366;" vertex="1" parent="gPckJBPebu3lDU5of1CX-37">
          <mxGeometry x="30" y="2760" width="120" height="30" as="geometry" />
        </mxCell>
        <mxCell id="gPckJBPebu3lDU5of1CX-269" value="EP04-04_2_Fail" style="rounded=1;whiteSpace=wrap;html=1;shadow=0;comic=0;labelBackgroundColor=none;strokeWidth=1;fontFamily=Verdana;fontSize=12;align=center;arcSize=50;" vertex="1" parent="gPckJBPebu3lDU5of1CX-37">
          <mxGeometry x="40" y="2830" width="100" height="30" as="geometry" />
        </mxCell>
        <mxCell id="gPckJBPebu3lDU5of1CX-274" value="EP04-04_3" style="rounded=1;whiteSpace=wrap;html=1;shadow=0;comic=0;labelBackgroundColor=none;strokeWidth=1;fontFamily=Verdana;fontSize=12;align=center;arcSize=50;" vertex="1" parent="gPckJBPebu3lDU5of1CX-37">
          <mxGeometry x="172.5" y="2920" width="100" height="30" as="geometry" />
        </mxCell>
        <mxCell id="gPckJBPebu3lDU5of1CX-275" value="&lt;span style=&quot;font-size: 10.5pt&quot;&gt;窗户的情况&lt;/span&gt;" style="shape=hexagon;perimeter=hexagonPerimeter2;whiteSpace=wrap;html=1;fixedSize=1;gradientColor=#97d077;fillColor=#d5e8d4;strokeColor=#82b366;" vertex="1" parent="gPckJBPebu3lDU5of1CX-37">
          <mxGeometry x="162.5" y="3040" width="120" height="30" as="geometry" />
        </mxCell>
        <mxCell id="gPckJBPebu3lDU5of1CX-272" style="edgeStyle=orthogonalEdgeStyle;rounded=0;orthogonalLoop=1;jettySize=auto;html=1;entryX=0.5;entryY=0;entryDx=0;entryDy=0;" edge="1" parent="gPckJBPebu3lDU5of1CX-37" source="gPckJBPebu3lDU5of1CX-274" target="gPckJBPebu3lDU5of1CX-275">
          <mxGeometry relative="1" as="geometry" />
        </mxCell>
        <mxCell id="gPckJBPebu3lDU5of1CX-277" value="&lt;span style=&quot;font-size: 10.5pt&quot;&gt;错误证物&lt;/span&gt;" style="shape=hexagon;perimeter=hexagonPerimeter2;whiteSpace=wrap;html=1;fixedSize=1;gradientColor=#97d077;fillColor=#d5e8d4;strokeColor=#82b366;" vertex="1" parent="gPckJBPebu3lDU5of1CX-37">
          <mxGeometry x="30" y="2960" width="120" height="30" as="geometry" />
        </mxCell>
        <mxCell id="gPckJBPebu3lDU5of1CX-273" style="edgeStyle=orthogonalEdgeStyle;rounded=0;orthogonalLoop=1;jettySize=auto;html=1;entryX=0.5;entryY=0;entryDx=0;entryDy=0;" edge="1" parent="gPckJBPebu3lDU5of1CX-37" source="gPckJBPebu3lDU5of1CX-274" target="gPckJBPebu3lDU5of1CX-277">
          <mxGeometry relative="1" as="geometry" />
        </mxCell>
        <mxCell id="gPckJBPebu3lDU5of1CX-278" value="EP04-04_3_Fail" style="rounded=1;whiteSpace=wrap;html=1;shadow=0;comic=0;labelBackgroundColor=none;strokeWidth=1;fontFamily=Verdana;fontSize=12;align=center;arcSize=50;" vertex="1" parent="gPckJBPebu3lDU5of1CX-37">
          <mxGeometry x="40" y="3030" width="100" height="30" as="geometry" />
        </mxCell>
        <mxCell id="gPckJBPebu3lDU5of1CX-276" style="edgeStyle=orthogonalEdgeStyle;rounded=0;orthogonalLoop=1;jettySize=auto;html=1;entryX=0.5;entryY=0;entryDx=0;entryDy=0;" edge="1" parent="gPckJBPebu3lDU5of1CX-37" source="gPckJBPebu3lDU5of1CX-277" target="gPckJBPebu3lDU5of1CX-278">
          <mxGeometry relative="1" as="geometry" />
        </mxCell>
        <mxCell id="gPckJBPebu3lDU5of1CX-281" value="EP04-04_4" style="rounded=1;whiteSpace=wrap;html=1;shadow=0;comic=0;labelBackgroundColor=none;strokeWidth=1;fontFamily=Verdana;fontSize=12;align=center;arcSize=50;" vertex="1" parent="gPckJBPebu3lDU5of1CX-37">
          <mxGeometry x="172.5" y="3150" width="100" height="30" as="geometry" />
        </mxCell>
        <mxCell id="gPckJBPebu3lDU5of1CX-292" style="edgeStyle=orthogonalEdgeStyle;rounded=0;orthogonalLoop=1;jettySize=auto;html=1;entryX=0.5;entryY=0;entryDx=0;entryDy=0;" edge="1" parent="gPckJBPebu3lDU5of1CX-37" source="gPckJBPebu3lDU5of1CX-282" target="gPckJBPebu3lDU5of1CX-291">
          <mxGeometry relative="1" as="geometry" />
        </mxCell>
        <mxCell id="gPckJBPebu3lDU5of1CX-282" value="&lt;span style=&quot;font-size: 10.5pt&quot;&gt;房间的白帐&lt;/span&gt;" style="shape=hexagon;perimeter=hexagonPerimeter2;whiteSpace=wrap;html=1;fixedSize=1;gradientColor=#97d077;fillColor=#d5e8d4;strokeColor=#82b366;" vertex="1" parent="gPckJBPebu3lDU5of1CX-37">
          <mxGeometry x="162.5" y="3270" width="120" height="30" as="geometry" />
        </mxCell>
        <mxCell id="gPckJBPebu3lDU5of1CX-283" style="edgeStyle=orthogonalEdgeStyle;rounded=0;orthogonalLoop=1;jettySize=auto;html=1;entryX=0.5;entryY=0;entryDx=0;entryDy=0;" edge="1" parent="gPckJBPebu3lDU5of1CX-37" source="gPckJBPebu3lDU5of1CX-281" target="gPckJBPebu3lDU5of1CX-282">
          <mxGeometry relative="1" as="geometry" />
        </mxCell>
        <mxCell id="gPckJBPebu3lDU5of1CX-284" value="&lt;span style=&quot;font-size: 10.5pt&quot;&gt;错误证物&lt;/span&gt;" style="shape=hexagon;perimeter=hexagonPerimeter2;whiteSpace=wrap;html=1;fixedSize=1;gradientColor=#97d077;fillColor=#d5e8d4;strokeColor=#82b366;" vertex="1" parent="gPckJBPebu3lDU5of1CX-37">
          <mxGeometry x="30" y="3190" width="120" height="30" as="geometry" />
        </mxCell>
        <mxCell id="gPckJBPebu3lDU5of1CX-285" style="edgeStyle=orthogonalEdgeStyle;rounded=0;orthogonalLoop=1;jettySize=auto;html=1;entryX=0.5;entryY=0;entryDx=0;entryDy=0;" edge="1" parent="gPckJBPebu3lDU5of1CX-37" source="gPckJBPebu3lDU5of1CX-281" target="gPckJBPebu3lDU5of1CX-284">
          <mxGeometry relative="1" as="geometry" />
        </mxCell>
        <mxCell id="gPckJBPebu3lDU5of1CX-286" value="EP04-04_4_Fail" style="rounded=1;whiteSpace=wrap;html=1;shadow=0;comic=0;labelBackgroundColor=none;strokeWidth=1;fontFamily=Verdana;fontSize=12;align=center;arcSize=50;" vertex="1" parent="gPckJBPebu3lDU5of1CX-37">
          <mxGeometry x="40" y="3260" width="100" height="30" as="geometry" />
        </mxCell>
        <mxCell id="gPckJBPebu3lDU5of1CX-287" style="edgeStyle=orthogonalEdgeStyle;rounded=0;orthogonalLoop=1;jettySize=auto;html=1;entryX=0.5;entryY=0;entryDx=0;entryDy=0;" edge="1" parent="gPckJBPebu3lDU5of1CX-37" source="gPckJBPebu3lDU5of1CX-284" target="gPckJBPebu3lDU5of1CX-286">
          <mxGeometry relative="1" as="geometry" />
        </mxCell>
        <mxCell id="gPckJBPebu3lDU5of1CX-280" style="edgeStyle=orthogonalEdgeStyle;rounded=0;orthogonalLoop=1;jettySize=auto;html=1;exitX=0.5;exitY=1;exitDx=0;exitDy=0;entryX=0.5;entryY=0;entryDx=0;entryDy=0;" edge="1" parent="gPckJBPebu3lDU5of1CX-37" source="gPckJBPebu3lDU5of1CX-275" target="gPckJBPebu3lDU5of1CX-281">
          <mxGeometry relative="1" as="geometry">
            <mxPoint x="223" y="3130" as="targetPoint" />
          </mxGeometry>
        </mxCell>
        <mxCell id="gPckJBPebu3lDU5of1CX-290" value="EP04-04_0_Fail" style="rounded=1;whiteSpace=wrap;html=1;shadow=0;comic=0;labelBackgroundColor=none;strokeWidth=1;fontFamily=Verdana;fontSize=12;align=center;arcSize=50;" vertex="1" parent="gPckJBPebu3lDU5of1CX-37">
          <mxGeometry x="350" y="2510" width="100" height="30" as="geometry" />
        </mxCell>
        <mxCell id="gPckJBPebu3lDU5of1CX-293" style="edgeStyle=orthogonalEdgeStyle;rounded=0;orthogonalLoop=1;jettySize=auto;html=1;entryX=0.5;entryY=0;entryDx=0;entryDy=0;" edge="1" parent="gPckJBPebu3lDU5of1CX-37" source="gPckJBPebu3lDU5of1CX-291" target="gPckJBPebu3lDU5of1CX-53">
          <mxGeometry relative="1" as="geometry" />
        </mxCell>
        <mxCell id="gPckJBPebu3lDU5of1CX-291" value="EP04-04_4" style="rounded=1;whiteSpace=wrap;html=1;shadow=0;comic=0;labelBackgroundColor=none;strokeWidth=1;fontFamily=Verdana;fontSize=12;align=center;arcSize=50;" vertex="1" parent="gPckJBPebu3lDU5of1CX-37">
          <mxGeometry x="172.5" y="3368" width="100" height="30" as="geometry" />
        </mxCell>
        <mxCell id="gPckJBPebu3lDU5of1CX-53" value="" style="ellipse;html=1;shape=endState;fillColor=#000000;strokeColor=#ff0000;" vertex="1" parent="gPckJBPebu3lDU5of1CX-37">
          <mxGeometry x="207.5" y="3470" width="30" height="30" as="geometry" />
        </mxCell>
        <mxCell id="gPckJBPebu3lDU5of1CX-216" style="edgeStyle=orthogonalEdgeStyle;rounded=0;orthogonalLoop=1;jettySize=auto;html=1;entryX=0.5;entryY=0;entryDx=0;entryDy=0;" edge="1" parent="gPckJBPebu3lDU5of1CX-1" source="gPckJBPebu3lDU5of1CX-22" target="gPckJBPebu3lDU5of1CX-211">
          <mxGeometry relative="1" as="geometry">
            <Array as="points">
              <mxPoint x="905" y="1450" />
              <mxPoint x="1715" y="1450" />
            </Array>
          </mxGeometry>
        </mxCell>
        <mxCell id="gPckJBPebu3lDU5of1CX-74" style="edgeStyle=orthogonalEdgeStyle;rounded=0;orthogonalLoop=1;jettySize=auto;html=1;" edge="1" parent="1" source="gPckJBPebu3lDU5of1CX-7">
          <mxGeometry relative="1" as="geometry">
            <mxPoint x="183" y="-930" as="targetPoint" />
            <Array as="points">
              <mxPoint x="183" y="-930" />
            </Array>
          </mxGeometry>
        </mxCell>
        <mxCell id="gPckJBPebu3lDU5of1CX-99" value="&lt;span style=&quot;font-size: 10.5pt ; color: #262626 ; letter-spacing: 0.55pt&quot;&gt;第一次对话&lt;/span&gt;" style="text;html=1;align=center;verticalAlign=middle;resizable=0;points=[];autosize=1;" vertex="1" parent="1">
          <mxGeometry x="345" y="-280" width="90" height="20" as="geometry" />
        </mxCell>
        <mxCell id="gPckJBPebu3lDU5of1CX-100" value="&lt;span style=&quot;font-size: 10.5pt ; color: #262626 ; letter-spacing: 0.55pt&quot;&gt;第二次对话&lt;/span&gt;" style="text;html=1;align=center;verticalAlign=middle;resizable=0;points=[];autosize=1;" vertex="1" parent="1">
          <mxGeometry x="595" y="-290" width="90" height="20" as="geometry" />
        </mxCell>
        <mxCell id="gPckJBPebu3lDU5of1CX-257" value="正确答案" style="text;html=1;align=center;verticalAlign=middle;resizable=0;points=[];autosize=1;" vertex="1" parent="1">
          <mxGeometry x="1760" y="1380" width="60" height="20" as="geometry" />
        </mxCell>
        <mxCell id="gPckJBPebu3lDU5of1CX-260" style="edgeStyle=orthogonalEdgeStyle;rounded=0;orthogonalLoop=1;jettySize=auto;html=1;" edge="1" parent="1" source="gPckJBPebu3lDU5of1CX-60">
          <mxGeometry relative="1" as="geometry">
            <mxPoint x="1630" y="1510" as="targetPoint" />
          </mxGeometry>
        </mxCell>
        <mxCell id="gPckJBPebu3lDU5of1CX-288" style="edgeStyle=orthogonalEdgeStyle;rounded=0;orthogonalLoop=1;jettySize=auto;html=1;" edge="1" parent="1" source="gPckJBPebu3lDU5of1CX-55">
          <mxGeometry relative="1" as="geometry">
            <mxPoint x="1950" y="1450" as="targetPoint" />
            <Array as="points">
              <mxPoint x="1620" y="1400" />
              <mxPoint x="1950" y="1400" />
            </Array>
          </mxGeometry>
        </mxCell>
        <mxCell id="gPckJBPebu3lDU5of1CX-289" style="edgeStyle=orthogonalEdgeStyle;rounded=0;orthogonalLoop=1;jettySize=auto;html=1;" edge="1" parent="1" source="gPckJBPebu3lDU5of1CX-56">
          <mxGeometry relative="1" as="geometry">
            <mxPoint x="1950" y="1450" as="targetPoint" />
          </mxGeometry>
        </mxCell>
      </root>
    </mxGraphModel>
  </diagram>
</mxfile>
